<svg width="226" height="50" viewBox="0 0 226 50" fill="none" xmlns="http://www.w3.org/2000/svg">
<g clip-path="url(#clip0_3_135)">
<path d="M222.385 43.0699C221.774 43.0441 220.993 42.7363 220.711 41.714C220.666 41.5505 220.468 41.2879 220.778 41.1825C221.023 41.0985 221.187 41.1781 221.352 41.4622C221.927 42.4458 222.721 42.6911 223.532 42.2521C223.842 42.0842 224.051 41.8475 224.058 41.516C224.066 41.1459 223.784 40.9715 223.453 40.8747C222.878 40.7068 222.301 40.5346 221.727 40.3625C221.146 40.1881 220.836 39.7728 220.818 39.1895C220.799 38.5546 221.141 38.1435 221.737 37.9068C222.73 37.5108 223.989 37.8035 224.398 38.5675C224.503 38.7655 224.738 39.0259 224.432 39.1981C224.223 39.3165 224.004 39.2412 223.844 38.9485C223.468 38.2555 222.788 38.3243 222.149 38.4405C221.783 38.5073 221.492 38.7397 221.484 39.1615C221.475 39.5661 221.8 39.6802 222.108 39.7749C222.478 39.8911 222.854 39.9923 223.231 40.0805C224.096 40.2828 224.804 40.6552 224.72 41.6861C224.652 42.5319 223.817 43.0785 222.383 43.0678L222.385 43.0699Z" fill="#101111"/>
<path d="M216.025 40.3883C216.025 39.5425 215.692 38.404 216.111 37.9283C216.615 37.3602 217.783 37.81 218.659 37.7454C218.836 37.7325 219.015 37.7454 219.193 37.7454C219.445 37.7454 219.71 37.726 219.673 38.1113C219.643 38.4298 219.404 38.3782 219.206 38.3803C218.709 38.3868 218.201 38.4406 217.712 38.3695C216.824 38.2426 216.527 38.5525 216.617 39.4478C216.666 39.9471 216.77 40.1365 217.284 40.0935C217.779 40.0526 218.281 40.059 218.778 40.0935C219.04 40.1128 219.512 39.8911 219.482 40.427C219.451 40.9457 218.993 40.6789 218.726 40.7111C218.341 40.7563 217.938 40.7671 217.555 40.7111C216.809 40.6057 216.593 40.8682 216.613 41.6237C216.63 42.2736 216.774 42.4996 217.443 42.4372C218.113 42.3748 218.795 42.4243 219.471 42.4243C219.72 42.4243 219.869 42.5039 219.845 42.7923C219.824 43.0377 219.658 43.0592 219.479 43.0592C218.446 43.0635 217.415 43.0506 216.385 43.0678C215.943 43.0764 215.967 42.8052 215.969 42.5104C215.973 41.8002 215.969 41.0899 215.969 40.3819C215.989 40.3819 216.008 40.3819 216.027 40.3819L216.025 40.3883Z" fill="#020202"/>
<path d="M48.6353 18.3604C47.7809 18.3604 46.9136 18.27 46.0742 18.3819C44.94 18.5326 44.6107 18.1237 44.4794 17.0088C44.0382 13.2575 41.985 10.563 38.5652 9.00477C32.1624 6.08854 24.9503 10.3628 24.2358 17.4737C24.1605 18.2291 23.9388 18.3927 23.2307 18.3755C21.2033 18.3281 19.1695 18.3044 17.1443 18.3841C16.2253 18.4207 16.0897 18.0699 16.1392 17.2886C16.7892 7.05488 25.2344 -0.473534 35.5306 0.0236249C44.7119 0.466979 52.3995 8.19554 52.7805 17.3316C52.8171 18.1796 52.5696 18.4379 51.7302 18.3776C50.7036 18.3044 49.6662 18.3604 48.6332 18.3604H48.6353Z" fill="#60AB46"/>
<path d="M200.282 34.3363C194.611 34.3363 190.087 31.0262 188.757 25.9039C187.358 20.5148 189.568 15.1214 194.367 12.5409C200.314 9.34271 209.788 11.1247 212.117 19.3397C214.628 28.2003 207.838 34.6096 200.282 34.3363Z" fill="#60AB46"/>
<path d="M132.064 23.1813C135.608 26.0868 137.055 30.3998 140.078 33.9079C138.688 33.9079 137.543 33.9079 136.398 33.9079C135.951 33.9079 135.834 33.5227 135.649 33.2386C134.629 31.661 133.611 30.0813 132.615 28.4887C131.935 27.3997 131.104 26.4419 130.23 25.5036C129.19 24.3866 127.903 24.1197 126.468 24.1046C125.736 24.0982 125.902 24.5738 125.9 24.9655C125.893 27.6257 125.861 30.2858 125.917 32.9459C125.934 33.7637 125.689 33.9445 124.908 33.9316C122.654 33.8929 122.654 33.9273 122.654 31.6632C122.654 25.2797 122.669 18.8963 122.635 12.5107C122.631 11.708 122.833 11.4798 123.631 11.5272C125.934 11.6628 128.256 11.3184 130.548 11.7402C133.346 12.2568 135.288 14.1378 135.649 16.6214C136.082 19.5872 134.941 21.7179 132.064 23.1792V23.1813Z" fill="#60AB46"/>
<path d="M108.215 22.7617C108.215 19.3203 108.228 15.8768 108.202 12.4354C108.198 11.7725 108.338 11.5186 109.078 11.525C112.778 11.5659 116.48 11.553 120.181 11.5336C120.739 11.5315 120.991 11.6197 121.004 12.2697C121.051 14.5252 121.081 14.5252 118.832 14.5252C116.66 14.5252 114.489 14.5532 112.319 14.508C111.641 14.4951 111.482 14.7124 111.497 15.3516C111.54 16.983 111.542 18.6165 111.497 20.2479C111.478 20.9302 111.661 21.1583 112.375 21.1454C114.831 21.1023 117.287 21.1518 119.742 21.1131C120.45 21.1023 120.73 21.2422 120.719 22.0278C120.689 24.109 120.73 24.1111 118.688 24.109C116.553 24.109 114.418 24.1283 112.283 24.096C111.678 24.0874 111.489 24.2618 111.502 24.8708C111.538 26.6443 111.542 28.4198 111.502 30.1932C111.487 30.841 111.747 30.9401 112.313 30.9357C115.018 30.9121 117.724 30.953 120.427 30.9078C121.195 30.8949 121.374 31.1359 121.363 31.8655C121.333 33.9079 121.367 33.9079 119.293 33.9079C115.911 33.9079 112.53 33.8864 109.151 33.9252C108.4 33.9338 108.198 33.7185 108.204 32.9782C108.243 29.5712 108.222 26.1643 108.222 22.7574L108.215 22.7617Z" fill="#60AB46"/>
<path d="M37.7283 29.4701C41.2493 28.1271 43.479 25.6262 44.4518 22.0019C44.525 21.7286 44.6412 21.438 44.6089 21.1712C44.4324 19.7184 45.2825 19.6646 46.3931 19.7055C48.3107 19.7765 50.2348 19.7486 52.1567 19.712C52.7765 19.7012 52.9573 19.9078 52.9336 20.5061C52.5505 30.2169 44.7961 36.6541 38.4536 37.5279C38.247 37.5559 38.0511 37.6571 37.8488 37.7238C37.2914 37.6398 37.3753 37.1513 37.3603 36.822C37.257 34.6418 37.2936 32.4595 37.3323 30.2793C37.3388 29.9629 37.3947 29.6422 37.7283 29.4701Z" fill="#030404"/>
<path d="M181.224 28.9213C181.224 29.9565 181.22 30.9745 181.226 31.9925C181.226 32.3067 181.121 32.5026 180.824 32.6618C177.083 34.6698 169.656 35.3499 165.661 32.1948C161.736 29.0956 160.242 25.028 161.273 20.2178C162.31 15.3818 165.547 12.4677 170.321 11.3744C173.848 10.5673 177.232 11.3981 180.503 12.7819C180.931 12.9627 180.981 13.2296 180.976 13.6084C180.966 14.4951 180.972 15.3796 180.972 16.2771C180.544 16.4019 180.299 16.0856 180.008 15.9392C177.047 14.4413 173.975 13.589 170.657 14.4886C166.503 15.6121 163.856 19.5291 164.389 23.6721C164.973 28.1896 168.304 31.2091 172.774 31.321C175.447 31.3877 177.892 30.6603 180.202 29.3797C180.501 29.214 180.755 28.9385 181.224 28.9213Z" fill="#60AB46"/>
<path d="M1.41378 39.6996C1.8765 39.6931 2.33923 39.6802 2.80195 39.6802C30.9226 39.6781 59.0412 39.6759 87.1619 39.6759C87.3556 40.2269 87.022 40.6595 86.8391 41.1286C86.5829 41.5333 86.1826 41.6495 85.7414 41.6753C85.4573 41.6925 85.1732 41.6861 84.887 41.6861C57.8101 41.6861 30.7332 41.6861 3.65638 41.6861C3.1958 41.6861 2.73093 41.7356 2.27897 41.6C1.55798 41.1674 1.33415 40.5045 1.41808 39.7039L1.41378 39.6996Z" fill="#18181A"/>
<path d="M29.2982 37.317C21.8516 34.9841 17.5536 29.9092 16.1654 22.3054C15.8512 20.5851 16.5492 19.7249 18.2595 19.7249C19.9662 19.7249 21.6729 19.7465 23.3775 19.712C23.9758 19.6991 24.1286 19.895 24.1824 20.4847C24.5095 24.1692 26.3841 26.8896 29.5242 28.7879C29.9223 29.0504 30.0407 29.4507 30.0493 29.8919C30.0816 32.0528 30.0967 34.2136 30.0364 36.3744C30.0235 36.7941 30.1096 37.4462 29.2982 37.3149V37.317Z" fill="#030404"/>
<path d="M105.692 16.3223C103.966 14.9298 102.285 14.0775 100.252 14.1357C99.6726 14.1529 99.1217 14.2605 98.5944 14.48C96.7887 15.2311 96.3432 16.912 97.557 18.4401C98.3232 19.4043 99.3821 20.009 100.411 20.6418C101.651 21.4058 102.955 22.0687 104.063 23.0329C105.8 24.5459 106.781 26.4247 106.547 28.7513C106.144 32.7522 102.789 35.0206 98.5191 34.2674C98.4502 34.2545 98.3813 34.2286 98.3124 34.2136C94.3438 33.4129 93.5625 32.3541 93.993 28.2111C94.4858 28.6803 94.9077 29.1301 95.379 29.5218C97.0405 30.897 98.9043 31.6847 101.093 31.166C103.383 30.6237 104.156 28.4607 102.793 26.5539C102.118 25.6069 101.168 24.9806 100.206 24.3651C98.7709 23.4482 97.2708 22.6347 95.9709 21.5091C93.9758 19.783 93.3731 17.6394 94.1372 15.1795C94.8904 12.7561 96.7564 11.5229 99.1862 11.1807C101.201 10.8966 103.151 11.2216 104.976 12.1944C105.514 12.4806 105.746 12.8293 105.705 13.4513C105.649 14.3251 105.69 15.2053 105.69 16.3244L105.692 16.3223Z" fill="#60AB46"/>
<path d="M213.316 28.1594C214.073 28.833 214.659 29.4378 215.328 29.9285C216.88 31.067 218.61 31.6416 220.543 31.1574C222.82 30.5849 223.569 28.4155 222.187 26.5216C221.436 25.4906 220.373 24.8385 219.32 24.1735C217.969 23.3212 216.574 22.5421 215.36 21.4832C213.372 19.7486 212.784 17.6028 213.567 15.1472C214.355 12.6807 216.268 11.4776 218.744 11.1634C220.726 10.9116 222.639 11.2474 224.421 12.2115C224.903 12.472 225.159 12.7862 225.123 13.3802C225.067 14.2863 225.108 15.1967 225.108 16.2878C223.702 15.2375 222.398 14.4111 220.801 14.2045C219.716 14.0624 218.668 14.1163 217.687 14.6306C216.23 15.3947 215.868 16.8603 216.798 18.2162C217.394 19.0857 218.259 19.6603 219.131 20.2134C220.33 20.9753 221.591 21.6468 222.744 22.4711C225.075 24.1412 226.362 26.3386 225.885 29.3151C225.45 32.029 223.457 33.9703 220.672 34.2953C218.255 34.5773 216.012 34.0586 213.983 32.6682C213.488 32.3282 213.277 31.9559 213.305 31.3511C213.352 30.3374 213.318 29.3216 213.318 28.1637L213.316 28.1594Z" fill="#60AB46"/>
<path d="M135.266 11.5444C136.239 11.5444 137.121 11.5831 137.999 11.5315C138.664 11.4927 138.718 11.9899 138.893 12.3902C140.892 17.0067 142.887 21.6253 144.884 26.2439C144.968 26.4376 145.063 26.6292 145.16 26.838C145.549 26.6098 145.592 26.1987 145.739 25.863C147.658 21.4058 149.585 16.9486 151.468 12.4763C151.754 11.7984 152.066 11.4432 152.856 11.5315C153.558 11.6111 154.274 11.5487 154.976 11.5487C155.174 11.8887 154.931 12.1212 154.834 12.3515C151.905 19.2687 148.967 26.1794 146.021 33.088C145.868 33.4431 145.866 33.9574 145.237 33.9209C144.68 33.8886 144.693 33.4151 144.553 33.0944C141.598 26.3042 138.658 19.5075 135.718 12.713C135.567 12.3622 135.443 12.0007 135.268 11.5487L135.266 11.5444Z" fill="#60AB46"/>
<path d="M76.7217 34.3362C75.5122 35.0651 74.4289 34.9525 73.4719 33.9983C71.636 32.1776 69.7808 30.374 67.9622 28.5339C67.5598 28.1271 67.3209 28.0496 66.8818 28.5016C64.6586 30.7872 62.3665 33.0062 60.1799 35.3262C59.5342 36.0128 58.9746 36.2173 58.1654 35.8019C57.7995 35.1605 58.4086 34.9173 58.7099 34.6117C60.9417 32.3476 63.1994 30.1071 65.4571 27.8689C65.909 27.419 66.2319 26.9972 65.541 26.4979C65.2806 26.3064 65.0417 26.0933 64.8523 25.8307C64.7447 25.6994 64.6263 25.5789 64.4864 25.4778C64.4111 25.4326 64.3358 25.3917 64.2583 25.3551C63.7676 25.3874 63.5438 25.7984 63.2532 26.0868C61.03 28.2842 58.8283 30.5053 56.5964 32.6941C56.2844 32.9997 56.0369 33.6002 55.3912 33.258C55.2771 33.0406 55.176 32.8168 55.0469 32.6102C54.5196 31.76 54.681 31.138 55.4321 30.4192C57.6618 28.2864 59.7817 26.0373 61.9856 23.8765C62.4978 23.375 62.4677 23.1189 61.977 22.6347C59.8829 20.575 57.834 18.4702 55.7399 16.3546C55.9745 16.2943 56.1961 16.2362 56.4157 16.1781C56.5642 15.9155 56.8203 15.7842 57.0721 15.6465C57.2959 15.5367 57.5219 15.4399 57.7802 15.4614C58.1891 15.5475 58.4409 15.8596 58.7164 16.1307C59.4503 16.8517 60.1842 17.5706 60.9009 18.3088C65.7928 23.3406 70.9861 28.0669 75.906 33.0707C76.2547 33.4258 76.8207 33.6776 76.7217 34.3362Z" fill="#030304"/>
<path d="M158.97 22.7143C158.97 26.1514 158.955 29.5884 158.983 33.0234C158.99 33.6798 158.865 33.9337 158.127 33.9316C155.637 33.923 155.637 33.9574 155.637 31.4566C155.637 25.1506 155.65 18.8446 155.622 12.5365C155.617 11.7704 155.779 11.5035 156.61 11.5185C158.97 11.5637 158.97 11.5207 158.97 13.8903C158.97 16.8302 158.97 19.7722 158.97 22.7122V22.7143Z" fill="#60AB46"/>
<path d="M186.527 22.7918C186.527 26.1945 186.503 29.5949 186.546 32.9954C186.555 33.7487 186.348 33.9381 185.606 33.9295C183.195 33.9015 183.195 33.9338 183.195 31.4824C183.195 25.1743 183.213 18.8684 183.174 12.5624C183.17 11.7037 183.428 11.5078 184.244 11.5229C186.527 11.5681 186.527 11.5315 186.527 13.7547C186.527 16.7657 186.527 19.7787 186.527 22.7897V22.7918Z" fill="#60AB46"/>
<path d="M60.4814 11.5746C62.6271 13.7289 64.7901 15.8682 66.91 18.0463C67.3986 18.5477 67.603 18.1969 67.9065 17.8999C69.7445 16.0835 71.5868 14.2713 73.4484 12.4398C73.5431 12.6916 73.6464 12.9671 73.7497 13.2447C74.0876 13.5352 74.2598 13.942 74.5116 14.2928C74.8624 14.8954 74.4944 15.2871 74.107 15.6767C72.8307 16.9529 71.548 18.227 70.2718 19.5033C69.9167 19.8584 69.5013 20.2028 69.9877 20.7494C70.0867 20.8549 70.1878 20.9625 70.2912 21.0637C70.7926 21.6469 71.2274 21.4919 71.7095 20.9991C72.9965 19.6841 74.3136 18.3949 75.6135 17.0928C76.0612 16.6452 76.5347 16.3094 77.2148 16.501C77.5871 16.7162 78.1876 16.4063 78.3899 17.0089C76.4637 18.9308 74.5568 20.8743 72.5962 22.7639C72.1012 23.2395 72.3874 23.4418 72.7016 23.7518C74.7247 25.7361 76.7133 27.7549 78.7751 29.6983C79.4983 30.3784 79.6425 30.9939 79.0851 31.7881C78.5147 31.9108 78.2758 31.4373 77.9702 31.1338C75.3983 28.5899 72.8114 26.0632 70.289 23.472C67.1726 20.2695 63.8087 17.3253 60.6923 14.1271C60.3006 13.7246 59.8293 13.3631 59.8508 12.7131C60.0101 12.3063 59.797 11.693 60.4793 11.5746H60.4814Z" fill="#0A0A0C"/>
<path d="M83.7788 35.0185C82.7371 34.7581 82.4466 34.1404 82.4573 33.045C82.5283 26.5303 82.5004 20.0134 82.5068 13.4965C83.0922 13.3286 83.5442 13.899 84.121 13.7827C84.3943 13.7784 84.5815 13.914 84.7128 14.1422C84.9474 14.5662 84.9474 15.0289 84.9474 15.4916C84.9474 21.5608 84.9539 27.6279 84.9453 33.6971C84.9453 34.9583 84.8333 35.0637 83.7788 35.0185Z" fill="#19191A"/>
<path d="M83.7788 35.0186C84.3922 35.1219 84.6634 34.9475 84.6612 34.2459C84.6375 27.8388 84.6505 21.4338 84.6397 15.0267C84.6397 14.6544 84.5278 14.2821 84.4697 13.9119C84.9711 13.4492 85.5673 13.5977 86.1484 13.6493C86.4282 13.7268 86.6434 13.871 86.6757 14.1895C86.6714 20.4288 86.6778 26.6702 86.6714 32.9094C86.6714 33.6239 86.6994 34.3255 86.9813 34.9949C86.5057 35.2402 86.0193 35.4146 85.4812 35.1929C85.2918 34.8227 85.3865 34.4267 85.3865 34.0436C85.38 27.4191 85.3822 20.7946 85.3757 14.168C85.3757 20.7925 85.3757 27.4191 85.3714 34.0436C85.3714 34.4267 85.464 34.8227 85.2767 35.1929C84.743 35.4232 84.2609 35.2252 83.7788 35.0186Z" fill="#F8F8F8"/>
<path d="M86.9815 34.9948C86.1895 35.0529 86.2971 34.4955 86.2971 34.0048C86.2971 29.0031 86.2971 24.0013 86.2971 18.9996C86.2971 17.6868 86.2864 16.3739 86.3036 15.0632C86.3079 14.7339 86.1486 14.3379 86.549 14.1012C86.734 13.7138 87.0655 13.5029 87.4529 13.3608C87.554 13.3694 87.6509 13.3974 87.7391 13.4448C87.9393 13.7353 87.8381 14.0646 87.8381 14.3745C87.8446 20.758 87.8295 27.1414 87.8618 33.5248C87.8661 34.2717 87.6552 34.7322 86.9794 34.9969L86.9815 34.9948Z" fill="#2D2E2F"/>
<path d="M29.2981 37.3171C29.5369 37.2288 29.7393 37.132 29.7371 36.8113C29.7242 34.3018 29.7263 31.7924 29.7091 29.2829C29.7091 29.1193 29.5886 28.9536 29.524 28.79C30.7357 29.1344 31.8656 29.7456 33.1397 29.8747C33.4992 30.0512 33.6434 30.3698 33.6563 30.7378C33.7273 32.8878 33.7208 35.0379 33.6563 37.1858C33.6455 37.5151 33.624 37.9175 33.1376 37.9735C31.8032 38.0682 30.5119 37.9068 29.2959 37.3171H29.2981Z" fill="#CCCDD0"/>
<path d="M0.290527 33.852C0.428268 33.3333 0.566009 32.8146 0.70375 32.2938C0.886688 31.9494 1.21167 32.1108 1.46563 32.1087C6.90855 32.0979 12.3536 32.0979 17.7966 32.1065C18.1818 32.1065 18.7263 31.9193 18.7005 32.6424C18.7112 32.8555 18.6703 33.06 18.5993 33.2601C18.4917 33.5227 18.3561 33.768 18.1237 33.9445C17.6846 34.2523 17.1767 34.2028 16.6839 34.2049C11.6821 34.2114 6.68042 34.2114 1.67655 34.2049C1.19445 34.2049 0.665011 34.3082 0.290527 33.8541V33.852Z" fill="#202021"/>
<path d="M37.7282 29.4701C37.6894 32.2228 37.4678 34.9776 37.8487 37.7259C36.538 38.2898 35.1455 38.0875 33.781 38.1671C33.9683 36.2668 33.865 34.3599 33.9016 32.4574C33.9188 31.5728 33.8736 30.7055 33.5723 29.8639C34.9927 30.1158 36.3421 29.6164 37.726 29.4701H37.7282Z" fill="#FBFAF9"/>
<path d="M0.28418 27.2361C0.543879 26.0567 1.27419 25.467 2.47512 25.467C6.02841 25.467 9.5817 25.467 13.1371 25.467C13.5568 25.467 13.9937 25.396 14.3574 25.6973C14.3876 25.792 14.3725 25.8781 14.3209 25.962C14.0152 26.2547 14.0949 26.683 13.9464 27.036C13.8797 27.1393 13.8022 27.2254 13.7053 27.3028C13.206 27.6536 12.6314 27.6343 12.0653 27.6364C8.62827 27.645 5.19336 27.6472 1.75629 27.6321C1.24191 27.6321 0.673729 27.7333 0.28418 27.234V27.2361Z" fill="#1F2021"/>
<path d="M18.8037 36.6692C13.1241 36.6692 7.44439 36.6649 1.76472 36.6843C1.09539 36.6864 0.561643 36.6111 0.428206 35.8363C0.311987 35.5479 0.432511 35.3628 0.688623 35.2359C0.951192 35.1046 1.23313 35.0895 1.51937 35.0874C6.73632 35.0809 11.9554 35.0809 17.1724 35.0874C17.6049 35.0874 18.0268 35.1369 18.3561 35.4597C18.6229 35.817 18.9178 36.1678 18.8037 36.6671V36.6692Z" fill="#363637"/>
<path d="M0.189453 19.6345C0.370238 18.6424 0.910441 18.3238 1.95856 18.3454C5.58072 18.4207 9.20503 18.3712 12.8272 18.3712C12.9994 18.976 12.6722 19.4516 12.4161 19.9488C12.0502 20.3706 11.5509 20.3792 11.0516 20.3814C7.83838 20.3857 4.62514 20.3964 1.4119 20.3706C0.903985 20.3663 0.19591 20.5406 0.189453 19.6367V19.6345Z" fill="#1F1F20"/>
<path d="M76.7219 34.3363C74.4987 32.098 72.2927 29.8447 70.0501 27.6236C66.245 23.8551 62.4205 20.1038 58.5982 16.3503C58.3227 16.0792 58.0107 15.8446 57.7158 15.5949C57.6233 15.2333 57.916 15.1666 58.1376 15.0439C58.2926 15.0031 58.4475 15.0095 58.5982 15.0633C60.2016 16.3589 61.6221 17.859 63.0317 19.3419C66.2622 22.7359 69.822 25.7856 73.0696 29.1559C74.2749 30.4064 75.536 31.6052 76.7499 32.8491C77.0211 33.1268 77.4816 33.3463 77.2901 33.88C77.0684 33.9919 77.0361 34.3406 76.7198 34.3363H76.7219Z" fill="#747477"/>
<path d="M14.0776 30.0405C9.9518 30.034 5.82602 30.0147 1.70025 30.0362C1.03952 30.0405 0.602624 29.8726 0.41323 29.2227C0.251814 28.6954 0.486405 28.4199 0.994325 28.3187C1.16865 28.2843 1.34513 28.2628 1.52161 28.2628C5.23417 28.2477 8.94457 28.2348 12.6571 28.2714C13.0122 28.2757 13.3609 28.3338 13.6837 28.4974C13.97 28.6459 14.1421 28.8826 14.2196 29.1904C14.1938 29.4766 14.4241 29.8081 14.0797 30.0427L14.0776 30.0405Z" fill="#404141"/>
<path d="M87.0202 43.9006C87.1881 44.0125 87.1666 44.133 86.9815 44.1524C86.6651 44.1847 86.3423 44.1739 86.0216 44.1739C58.1872 44.1739 30.3527 44.1761 2.51826 44.1567C2.13516 44.1567 1.57129 44.5075 1.34961 43.8296C1.41848 43.6897 1.53039 43.6208 1.68535 43.623C29.5435 43.623 57.4016 43.623 85.2619 43.6273C85.8559 43.6273 86.4822 43.5089 87.0202 43.9006Z" fill="#0A0B0C"/>
<path d="M87.0199 43.9006C86.5938 43.9071 86.1676 43.9221 85.7393 43.9221C58.0706 43.9221 30.404 43.9221 2.7353 43.92C2.27903 43.92 1.8077 44.0082 1.36865 43.7952C1.41385 43.5541 1.56235 43.425 1.8034 43.4013C29.5302 43.4185 57.2592 43.4013 84.9861 43.4164C85.6425 43.4164 86.3484 43.2184 86.936 43.7155C86.9898 43.765 87.0156 43.8253 87.0156 43.8985L87.0199 43.9006Z" fill="#484849"/>
<path d="M86.9406 43.7178C58.9877 43.7156 31.0349 43.7134 3.08209 43.7027C2.60215 43.7027 2.07702 43.862 1.65088 43.4789C1.75634 43.3777 1.87686 43.3067 2.01675 43.2658C2.65165 43.1496 3.29516 43.1991 3.93437 43.1991C31.4503 43.1948 58.9641 43.2012 86.48 43.1926C86.6823 43.2077 86.9126 43.1646 86.9793 43.4466C86.9664 43.537 86.9556 43.6274 86.9427 43.7178H86.9406Z" fill="#636265"/>
<path d="M13.8775 28.7297C9.96908 28.5123 6.05853 28.691 2.14797 28.6329C1.75627 28.6264 1.36457 28.6501 0.975022 28.6286C0.533821 28.6049 0.432667 28.8653 0.413297 29.2204C0.0775534 28.5769 0.0861622 27.9119 0.284165 27.2361C4.51325 27.2598 8.74448 27.2748 12.9736 27.3243C13.3954 27.3286 13.5503 26.9412 13.9055 26.9154C14.3445 27.5266 14.3682 28.1314 13.8775 28.7276V28.7297Z" fill="#EFF0F0"/>
<path d="M65.5711 26.2957C66.3933 26.7046 66.5676 27.1243 65.81 27.8582C63.4404 30.161 61.1247 32.522 58.7981 34.87C58.5334 35.1369 58.1417 35.3328 58.1632 35.8019C57.7048 35.7632 57.4358 35.3909 57.0699 35.1886C56.9559 34.954 57.0893 34.771 57.227 34.6161C59.73 31.7558 62.4633 29.1193 65.1859 26.4721C65.2892 26.371 65.4334 26.3365 65.5711 26.2978V26.2957Z" fill="#848588"/>
<path d="M180.729 39.0001C180.37 40.0913 180.034 41.1889 179.638 42.265C179.533 42.5534 179.612 43.0441 179.1 43.0635C178.566 43.085 178.642 42.5965 178.536 42.3016C178.162 41.2621 177.826 40.2075 177.29 39.1981C177.29 40.285 177.294 41.3719 177.286 42.4587C177.286 42.717 177.393 43.0743 176.929 43.0657C176.464 43.057 176.591 42.6933 176.589 42.4415C176.578 41.0964 176.58 39.7513 176.589 38.404C176.589 38.1091 176.474 37.7368 177.004 37.7346C177.415 37.7346 177.712 37.7433 177.858 38.2619C178.203 39.4779 178.637 40.6681 179.109 42.0842C179.563 40.7327 179.965 39.6006 180.32 38.4556C180.473 37.9628 180.665 37.6184 181.254 37.7432C181.879 37.8745 181.564 38.3695 181.575 38.6859C181.616 39.8524 181.612 41.0232 181.577 42.1897C181.569 42.4846 181.836 43.0269 181.285 43.0377C180.617 43.0506 180.96 42.4501 180.947 42.1445C180.899 41.1201 180.929 40.0913 180.929 39.0647C180.863 39.0432 180.796 39.0195 180.731 38.998L180.729 39.0001Z" fill="#131414"/>
<path d="M77.292 33.8801C76.995 33.2968 76.4591 32.9266 76.0114 32.4833C70.4695 27.0038 64.9147 21.5372 59.3706 16.0577C59.0757 15.7671 58.6797 15.5433 58.5872 15.087C58.4193 14.8029 58.5485 14.6759 58.8239 14.7384C59.1855 14.8201 59.4115 15.1257 59.6633 15.3711C65.4398 21.04 71.2895 26.6357 76.9606 32.4079C77.2769 32.7308 77.6902 32.9912 77.7935 33.4819C77.7009 33.7057 77.5739 33.8887 77.292 33.8779V33.8801Z" fill="#E6E6E7"/>
<path d="M73.9521 13.0294C73.909 11.7574 74.2749 11.4755 75.4091 11.9813C76.9544 12.67 78.0047 13.858 78.6977 15.3774C78.8053 16.7355 78.6719 16.8539 77.3332 16.6064C77.0556 16.4643 76.737 16.4191 76.4615 16.2641C76.2442 16.1544 76.0247 16.0489 75.8331 15.894C75.5921 15.6185 75.3833 15.3107 75.0712 15.0998C74.7785 14.8458 74.6365 14.4886 74.4277 14.1765C74.1006 13.8623 73.9908 13.4598 73.9521 13.0272V13.0294Z" fill="#070708"/>
<path d="M55.9614 15.9952C55.0962 15.9694 54.9434 15.4055 55.1844 14.7706C55.8387 13.0467 57.059 11.8393 58.8001 11.1872C59.2349 11.0236 59.633 11.0989 59.8956 11.5358C60.0742 11.764 60.0699 12.0179 59.9989 12.2826C59.8461 12.6012 59.7708 12.9498 59.5921 13.2576C59.4264 13.5524 59.293 13.8667 59.0864 14.1378C58.7162 14.4327 58.3525 14.7319 58.0103 15.0611C57.6745 15.3345 57.3259 15.582 56.9234 15.7498C56.6436 15.9866 56.2648 15.8488 55.9635 15.9973L55.9614 15.9952Z" fill="#050506"/>
<path d="M18.4097 35.8299C18.1041 35.4791 17.7102 35.4382 17.269 35.4382C11.9768 35.4489 6.6845 35.4425 1.39223 35.4511C1.03497 35.4511 0.574395 35.2789 0.428045 35.8385C0.253717 35.4963 -0.127223 35.1885 0.245108 34.7559C0.701375 34.3707 1.25449 34.4718 1.77748 34.4718C6.6802 34.4654 11.5829 34.4718 16.4856 34.4632C16.901 34.4632 17.3422 34.5794 17.721 34.2997C17.8975 34.0909 18.1192 33.9101 18.1579 33.6131C18.1579 33.4345 18.1902 33.2731 18.414 33.2494C18.8767 34.0349 18.7325 34.8958 18.7132 35.7395C18.6421 35.8665 18.5388 35.8966 18.4097 35.832V35.8299Z" fill="#C5C5C6"/>
<path d="M65.571 26.2956C63.8126 28.0905 62.0413 29.8747 60.3002 31.6869C59.2004 32.8319 58.1459 34.0199 57.0698 35.1885C56.6501 35.1713 56.4478 34.941 56.4306 34.5342C56.3229 34.0156 56.7512 33.7896 57.0289 33.5076C58.1824 32.3304 59.3597 31.1747 60.5262 30.0103C60.8469 29.6896 61.1977 29.3883 61.3591 28.9407C62.22 27.7247 63.3671 26.7799 64.4238 25.7511C64.553 25.6241 64.7273 25.5789 64.9145 25.6413C65.1341 25.8609 65.3536 26.0782 65.571 26.2978V26.2956Z" fill="#F5F5F5"/>
<path d="M58.9857 14.0733C58.9857 13.7289 59.1234 13.4491 59.3946 13.2361C59.584 13.1435 59.6701 13.2597 59.7411 13.4061C59.7605 13.5072 59.7626 13.6062 59.7475 13.7074C59.5323 14.2584 59.9133 14.5597 60.2426 14.8847C62.3646 16.9809 64.5104 19.0513 66.6647 21.1153C70.3601 24.6557 73.9349 28.3187 77.5506 31.943C77.8562 32.2486 78.3404 32.4832 78.2221 33.0579C78.1532 33.131 78.0843 33.2042 78.0133 33.2774C77.5226 33.357 77.3569 32.918 77.1029 32.6662C74.0748 29.6703 71.0595 26.6615 68.0486 23.6484C65.2141 20.814 62.2742 18.0828 59.485 15.2032C59.1944 14.9019 58.6585 14.6608 58.9878 14.069L58.9857 14.0733Z" fill="#E6E6E7"/>
<path d="M166.948 47.5981C167.616 48.2674 168.096 49.025 168.517 49.8148C167.814 50.0989 167.581 49.6147 167.256 49.167C166.798 48.5364 166.565 47.6454 165.582 47.5443C165.039 47.4883 164.59 47.5077 164.717 48.2782C164.779 48.657 164.727 49.0551 164.725 49.4447C164.725 49.6577 164.732 49.8687 164.422 49.8859C164.118 49.9052 164.075 49.7288 164.075 49.492C164.075 47.9704 164.079 46.4488 164.075 44.9293C164.075 44.6582 164.191 44.5549 164.456 44.5592C165.306 44.5742 166.163 44.5204 167.006 44.6065C167.603 44.6668 168.044 45.0585 168.143 45.6998C168.235 46.2895 168.149 46.834 167.609 47.2042C167.407 47.342 167.187 47.4539 166.944 47.5959L166.948 47.5981Z" fill="#060707"/>
<path d="M127.015 40.8037C127.671 41.4171 128.093 42.1811 128.551 42.9215C128.056 43.24 127.759 43.0527 127.482 42.6051C127.148 42.067 126.776 41.5484 126.378 41.0533C126.016 40.6057 125.456 40.638 124.998 40.7628C124.55 40.8833 124.88 41.374 124.783 41.6796C124.639 42.1338 125.112 42.986 124.471 42.9946C123.78 43.0032 124.187 42.1553 124.159 41.7098C124.088 40.6186 124.169 39.5167 124.122 38.4212C124.096 37.8358 124.309 37.6938 124.845 37.7325C125.409 37.7734 125.979 37.7454 126.548 37.7411C127.325 37.7346 127.981 37.9692 128.181 38.7871C128.379 39.5942 128.123 40.2527 127.297 40.6014C127.202 40.6423 127.124 40.7241 127.019 40.8015L127.015 40.8037Z" fill="#060707"/>
<path d="M78.2219 33.0599C77.4622 32.2679 76.7176 31.4609 75.9406 30.6861C73.0265 27.7741 70.1146 24.8601 67.1811 21.9696C64.7319 19.5549 62.2547 17.1724 59.7883 14.7748C59.4504 14.4455 59.0501 14.1313 59.6334 13.675C59.6786 13.6987 59.7237 13.7202 59.7689 13.7418C64.3122 18.341 68.8749 22.9209 73.5129 27.4233C74.9872 28.8545 76.4851 30.2685 77.9615 31.7041C78.237 31.9709 78.5706 32.2077 78.6438 32.6274C78.5039 32.7716 78.364 32.9136 78.2241 33.0578L78.2219 33.0599Z" fill="#9FA1A5"/>
<path d="M153.523 40.3C153.809 40.4184 154.405 40.0547 154.474 40.5324C154.565 41.1501 154.801 41.8991 154.27 42.435C153.426 43.2851 151.582 43.2851 150.618 42.5039C149.683 41.7463 149.451 40.0654 150.118 38.9032C150.708 37.8766 152.066 37.4462 153.284 37.9154C153.51 38.0015 153.751 38.1134 153.913 38.2834C154.173 38.561 154.666 38.9097 154.248 39.2928C153.783 39.7189 153.764 39.0281 153.551 38.8408C152.985 38.3458 152.344 38.2619 151.666 38.4835C150.803 38.7655 150.497 39.4779 150.456 40.3C150.417 41.077 150.633 41.7829 151.379 42.1875C152.096 42.5749 152.808 42.478 153.521 42.1337C153.945 41.9292 153.887 41.5655 153.861 41.2255C153.824 40.7541 153.435 41.0102 153.202 40.9457C153.136 40.9263 153.058 40.9564 152.991 40.9414C152.755 40.8854 152.354 41.1157 152.346 40.6465C152.335 40.0955 152.791 40.3689 153.049 40.3086C153.183 40.2763 153.331 40.3022 153.525 40.3022L153.523 40.3Z" fill="#0A0A0B"/>
<path d="M105.221 40.3001C105.505 40.4615 106.177 39.9815 106.203 40.6014C106.233 41.2901 106.659 42.1553 105.675 42.6632C104.453 43.2938 102.946 43.1797 102.126 42.3124C101.339 41.4795 101.244 39.762 101.93 38.7483C102.54 37.8509 103.844 37.4785 104.972 37.9047C105.228 38.0015 105.495 38.1414 105.684 38.333C105.936 38.5848 106.327 38.9549 105.996 39.2778C105.546 39.7168 105.499 39.0647 105.288 38.871C104.668 38.3028 103.96 38.2297 103.22 38.5611C102.346 38.9506 102.137 39.7405 102.178 40.5885C102.221 41.473 102.643 42.1294 103.564 42.3726C104.147 42.5255 104.683 42.3856 105.213 42.1531C105.632 41.968 105.598 41.6151 105.587 41.26C105.57 40.765 105.187 40.9995 104.954 40.95C104.819 40.9221 104.672 40.9414 104.53 40.9457C104.27 40.9522 104.02 40.9543 104.057 40.5734C104.087 40.2527 104.326 40.3151 104.524 40.3065C104.737 40.2979 104.95 40.3065 105.223 40.3065L105.221 40.3001Z" fill="#0A0A0B"/>
<path d="M112.776 39.1938C112.776 40.272 112.782 41.3503 112.771 42.4285C112.769 42.6847 112.894 43.0613 112.436 43.0591C111.973 43.0591 112.115 42.6739 112.111 42.4264C112.098 41.1135 112.096 39.7986 112.113 38.4857C112.117 38.2382 111.934 37.8852 112.339 37.7647C112.72 37.6506 112.909 37.8917 113.094 38.1865C113.839 39.3681 114.601 40.5368 115.561 41.6387C115.561 40.5195 115.556 39.4025 115.563 38.2834C115.563 38.0553 115.481 37.754 115.879 37.7496C116.269 37.7453 116.219 38.0273 116.221 38.2705C116.221 39.6544 116.23 41.0404 116.215 42.4242C116.213 42.661 116.387 43.0182 115.914 43.0742C115.578 43.1151 115.399 42.9601 115.233 42.6954C114.485 41.5117 113.723 40.3366 112.965 39.1572C112.903 39.1701 112.84 39.1809 112.776 39.1938Z" fill="#111212"/>
<path d="M99.9676 41.6322C99.9676 40.5131 99.9633 39.3939 99.9697 38.2748C99.9697 38.0445 99.8944 37.7432 100.293 37.7475C100.68 37.7496 100.626 38.0359 100.626 38.2769C100.628 39.6608 100.635 41.0468 100.62 42.4307C100.618 42.6437 100.775 42.9537 100.415 43.0527C100.062 43.1495 99.8298 43.0096 99.6318 42.6911C98.8915 41.5031 98.1231 40.3323 97.1805 39.1959C97.1805 40.2763 97.1869 41.3546 97.1762 42.435C97.174 42.6911 97.2945 43.0677 96.834 43.0591C96.3734 43.0505 96.5176 42.6674 96.5154 42.4199C96.5025 41.1071 96.5004 39.7921 96.5176 38.4792C96.5219 38.2339 96.339 37.8788 96.7479 37.7604C97.131 37.6506 97.3161 37.8938 97.5012 38.1865C98.2458 39.3659 99.0077 40.5324 99.7631 41.7032C99.8298 41.6796 99.8966 41.6559 99.9633 41.6322H99.9676Z" fill="#121212"/>
<path d="M202.71 39.2002C202.71 40.287 202.714 41.3739 202.707 42.4608C202.707 42.7276 202.794 43.0806 202.337 43.0591C201.948 43.0397 202.045 42.7255 202.045 42.4995C202.036 41.1156 202.036 39.7296 202.045 38.3458C202.045 38.1241 201.933 37.8249 202.305 37.7518C202.636 37.6872 202.824 37.8551 202.992 38.1198C203.672 39.2002 204.365 40.2698 205.056 41.3438C205.131 41.46 205.221 41.5655 205.495 41.9227C205.495 40.6292 205.473 39.5983 205.507 38.5696C205.516 38.2855 205.234 37.7561 205.845 37.7668C206.358 37.7754 206.14 38.2489 206.145 38.5158C206.168 39.7942 206.166 41.0726 206.145 42.3489C206.14 42.5899 206.338 42.9472 205.916 43.0569C205.557 43.1516 205.337 42.9773 205.146 42.6652C204.418 41.4923 203.661 40.3387 202.916 39.1765C202.847 39.183 202.776 39.1916 202.707 39.198L202.71 39.2002Z" fill="#121212"/>
<path d="M139.906 46.0249C139.906 47.0859 139.915 48.147 139.9 49.208C139.895 49.4598 140.04 49.8472 139.598 49.8687C139.043 49.8967 139.248 49.4362 139.243 49.1693C139.224 47.8564 139.226 46.5414 139.243 45.2286C139.245 44.9832 139.088 44.626 139.54 44.5593C139.88 44.5098 140.044 44.7121 140.207 44.9682C140.959 46.154 141.725 47.3334 142.693 48.4655C142.693 47.3528 142.687 46.2423 142.698 45.1296C142.698 44.9122 142.581 44.5915 142.979 44.5679C143.444 44.5399 143.352 44.8928 143.354 45.1554C143.36 46.5393 143.363 47.9253 143.35 49.3092C143.35 49.5222 143.487 49.8322 143.081 49.8838C142.764 49.9247 142.558 49.8171 142.383 49.5395C141.637 48.3471 140.868 47.1656 140.108 45.9819C140.042 45.9969 139.975 46.0098 139.908 46.0249H139.906Z" fill="#121212"/>
<path d="M187.554 40.3215C187.554 40.145 187.511 39.9535 187.562 39.7942C187.78 39.1227 186.979 37.9799 188.064 37.7905C190.427 37.3773 191.518 38.0552 191.787 39.8007C191.949 40.8466 191.832 41.8883 190.956 42.6114C190.018 43.3841 188.852 43.0247 187.778 43.044C187.44 43.0505 187.562 42.6609 187.558 42.4414C187.543 41.7355 187.552 41.0296 187.552 40.3236L187.554 40.3215Z" fill="#0C0C0C"/>
<path d="M144.402 47.215C144.402 46.9675 144.342 46.7028 144.413 46.4768C144.613 45.8484 143.873 44.8282 144.837 44.6023C146.899 44.118 148.158 44.7637 148.547 46.2358C148.842 47.3528 148.771 48.4439 147.936 49.3048C147.03 50.2389 145.803 49.8127 144.703 49.8752C144.31 49.8967 144.411 49.5545 144.406 49.3328C144.396 48.6269 144.402 47.921 144.402 47.215Z" fill="#0B0C0C"/>
<path d="M137.78 40.3345C137.78 40.158 137.717 39.9492 137.791 39.8093C138.129 39.1572 137.029 37.9369 138.38 37.7777C140.817 37.4914 141.74 38.0768 142.011 39.7878C142.177 40.8338 142.063 41.8733 141.193 42.6029C140.257 43.3863 139.093 43.0204 138.019 43.0441C137.668 43.0527 137.791 42.6696 137.786 42.4501C137.771 41.7442 137.78 41.0383 137.78 40.3323V40.3345Z" fill="#0B0C0C"/>
<path d="M58.9854 14.0732C58.9833 14.4305 59.22 14.6479 59.4482 14.876C65.5217 20.9302 71.5952 26.9843 77.6709 33.0363C77.7699 33.1353 77.899 33.202 78.0152 33.2817C77.942 33.3505 77.8667 33.4172 77.7935 33.4861C77.5762 33.3053 77.3459 33.1375 77.1457 32.9395C71.2207 27.107 65.3 21.2702 59.3707 15.4399C59.1576 15.2311 59.0134 14.904 58.6454 14.8954C58.6282 14.8954 58.6023 14.9513 58.5937 14.9836C58.583 15.0159 58.5873 15.0546 58.5873 15.0891C58.4495 15.1214 58.3096 15.1515 58.1719 15.1838C57.9266 15.2483 57.862 15.1386 57.9115 14.9169C58.2149 14.5661 58.4452 14.1206 58.9876 14.0732H58.9854Z" fill="#EEEEEF"/>
<path d="M186.994 49.8967C185.959 49.8924 185.163 49.5997 184.842 48.6011C184.788 48.4354 184.502 48.119 184.919 47.992C185.184 47.9124 185.318 48.0372 185.473 48.3105C185.996 49.2446 186.757 49.4856 187.577 49.1004C187.935 48.9325 188.18 48.6807 188.174 48.3019C188.167 47.9382 187.866 47.7725 187.539 47.6778C186.962 47.5099 186.385 47.3463 185.813 47.1677C185.232 46.9869 184.939 46.5565 184.932 45.9754C184.924 45.39 185.236 44.9918 185.782 44.7508C186.745 44.3246 188.021 44.5808 188.475 45.3211C188.598 45.5234 188.821 45.7881 188.604 45.9732C188.357 46.1842 188.126 46.0572 187.948 45.7386C187.586 45.0951 186.94 45.1554 186.338 45.2393C185.976 45.291 185.658 45.4868 185.606 45.9065C185.548 46.3757 185.918 46.4984 186.252 46.606C186.62 46.7265 187.003 46.8083 187.379 46.9008C188.24 47.1139 188.991 47.5099 188.819 48.5322C188.654 49.5158 187.874 49.873 186.998 49.8946L186.994 49.8967Z" fill="#101111"/>
<path d="M171.813 37.7411C172.321 37.7562 173.003 37.896 173.379 38.6278C173.468 38.8 173.646 39.0367 173.41 39.1809C173.199 39.3079 172.968 39.2907 172.816 38.9786C172.484 38.3093 171.845 38.3394 171.236 38.4083C170.827 38.4535 170.472 38.6601 170.433 39.1271C170.392 39.5941 170.792 39.6996 171.117 39.8072C171.619 39.9751 172.135 40.0934 172.645 40.2333C173.261 40.4034 173.64 40.8166 173.67 41.4407C173.702 42.0993 173.354 42.5706 172.749 42.8612C171.576 43.4251 170.033 42.9387 169.684 41.854C169.622 41.6603 169.394 41.3503 169.691 41.1975C169.968 41.0555 170.164 41.1782 170.313 41.5333C170.698 42.4566 171.464 42.5792 172.342 42.3059C172.714 42.1897 172.97 41.9336 172.998 41.5505C173.033 41.1136 172.684 40.9543 172.331 40.8467C171.961 40.7327 171.587 40.6186 171.21 40.5346C170.379 40.3496 169.706 40.0052 169.764 39.0152C169.809 38.249 170.556 37.7497 171.81 37.7411H171.813Z" fill="#101111"/>
<path d="M156.84 44.5571C157.356 44.5722 158.038 44.7078 158.422 45.4374C158.512 45.6096 158.688 45.8463 158.46 45.9926C158.254 46.1282 158.028 46.1067 157.862 45.8054C157.457 45.065 156.762 45.1361 156.084 45.2781C155.751 45.347 155.501 45.573 155.475 45.9345C155.449 46.3262 155.727 46.479 156.056 46.5759C156.665 46.7502 157.298 46.8794 157.877 47.1247C158.792 47.5121 158.992 48.4548 158.383 49.2296C157.518 50.3293 155.301 50.0603 154.771 48.7776C154.675 48.543 154.457 48.19 154.733 48.0265C155.083 47.8177 155.213 48.1104 155.383 48.4462C155.8 49.2748 156.825 49.505 157.576 49.0445C157.871 48.8637 158.075 48.6205 158.043 48.2761C158.015 47.9662 157.784 47.7919 157.483 47.7101C157.04 47.5917 156.601 47.4583 156.157 47.3399C155.378 47.1333 154.748 46.7761 154.806 45.842C154.853 45.0737 155.591 44.57 156.835 44.5593L156.84 44.5571Z" fill="#101111"/>
<path d="M162.093 43.0764C161.17 43.0721 160.412 42.7686 160.072 41.8432C160.003 41.6581 159.777 41.3417 160.09 41.1932C160.378 41.0555 160.557 41.204 160.705 41.5462C161.101 42.463 161.865 42.5835 162.743 42.3016C163.116 42.1832 163.37 41.9228 163.391 41.5397C163.417 41.1028 163.062 40.95 162.711 40.8424C162.171 40.6767 161.626 40.5282 161.084 40.3689C160.455 40.1838 160.137 39.7405 160.15 39.1077C160.163 38.5266 160.49 38.1414 161.045 37.9154C161.986 37.5323 163.208 37.7583 163.658 38.4578C163.796 38.6708 164.086 38.9592 163.778 39.183C163.507 39.381 163.32 39.1465 163.133 38.8817C162.664 38.2189 161.979 38.3028 161.306 38.5051C161.004 38.5955 160.821 38.8322 160.815 39.1357C160.806 39.4521 160.993 39.6436 161.318 39.7232C161.73 39.8223 162.126 39.9815 162.539 40.0762C163.406 40.2721 164.116 40.6336 164.056 41.6624C164.007 42.5039 163.165 43.0721 162.091 43.0742L162.093 43.0764Z" fill="#101111"/>
<path d="M165.126 40.1601C165.209 39.4843 164.753 38.3738 165.308 37.8895C165.78 37.4784 166.862 37.7647 167.674 37.7453C167.852 37.741 168.033 37.7238 168.207 37.7496C168.446 37.7862 168.845 37.5796 168.827 38.0746C168.812 38.5545 168.423 38.3608 168.186 38.3759C167.725 38.4039 167.252 38.4405 166.8 38.3716C165.93 38.2425 165.739 38.6105 165.771 39.4111C165.795 39.9922 165.978 40.1321 166.509 40.0955C167.075 40.0568 167.648 40.0848 168.216 40.0891C168.429 40.0891 168.647 40.0805 168.655 40.3968C168.666 40.711 168.464 40.7261 168.24 40.7261C167.777 40.7261 167.299 40.7993 166.854 40.7132C165.756 40.5001 165.748 41.1286 165.78 41.912C165.797 42.3446 165.946 42.45 166.344 42.4371C167.054 42.4134 167.766 42.4242 168.479 42.435C168.705 42.4393 169.008 42.3489 169 42.7621C168.991 43.0806 168.771 43.0656 168.563 43.0677C167.566 43.072 166.57 43.0569 165.573 43.0763C165.171 43.0849 165.113 42.8848 165.119 42.5533C165.132 41.8087 165.123 41.064 165.123 40.1601H165.126Z" fill="#020202"/>
<path d="M143.087 40.3216C143.124 39.5231 142.85 38.4147 143.283 37.9132C143.744 37.3816 144.886 37.797 145.73 37.7497C145.977 37.7346 146.227 37.7475 146.477 37.7497C146.664 37.7518 146.813 37.7906 146.83 38.0295C146.849 38.3243 146.683 38.3846 146.442 38.3846C145.801 38.3846 145.153 38.447 144.523 38.3695C143.726 38.2727 143.808 38.7375 143.78 39.2584C143.746 39.8631 143.849 40.1903 144.568 40.102C145.13 40.0332 145.704 40.0913 146.274 40.0891C146.522 40.0891 146.675 40.1687 146.649 40.455C146.627 40.6982 146.464 40.7219 146.285 40.7219C145.715 40.7262 145.138 40.7907 144.579 40.7111C143.728 40.5906 143.827 41.0942 143.776 41.6516C143.711 42.3597 144 42.4931 144.619 42.4415C145.22 42.392 145.829 42.42 146.434 42.4372C146.649 42.4436 146.972 42.3145 146.993 42.717C147.021 43.2077 146.64 43.0376 146.393 43.0656C146.216 43.085 146.038 43.0785 145.859 43.0678C144.979 43.0204 143.834 43.4379 143.287 42.9128C142.738 42.3855 143.205 41.2362 143.087 40.3172V40.3216Z" fill="#020202"/>
<path d="M59.6333 13.6751C59.6484 13.6149 59.6548 13.5524 59.6527 13.49C59.7129 13.4018 59.7969 13.3566 59.9045 13.3523C60.2316 13.447 60.4189 13.7225 60.6427 13.942C66.5376 19.6927 72.4583 25.4154 78.2434 31.2758C78.4931 31.5277 78.7427 31.7816 79.0311 31.9904C78.9579 32.1217 78.8869 32.2529 78.8137 32.3842C78.4113 32.4703 78.2606 32.1217 78.0497 31.9151C72.1355 26.1106 66.1566 20.3749 60.3371 14.4736C60.0896 14.2218 59.8098 13.9958 59.6656 13.6601L59.6333 13.6751Z" fill="#696A6C"/>
<path d="M130.264 47.1936C130.307 46.3305 130.038 45.2178 130.473 44.725C130.936 44.1999 132.079 44.6131 132.922 44.5636C133.028 44.5571 133.144 44.5378 133.241 44.5679C133.503 44.6454 133.981 44.3376 133.992 44.8563C134.005 45.4761 133.471 45.1554 133.187 45.1877C132.731 45.2415 132.255 45.2544 131.803 45.1899C131.041 45.0823 130.959 45.4503 130.955 46.0852C130.951 46.7029 131.056 47.002 131.76 46.9181C132.322 46.8514 132.896 46.903 133.467 46.9073C133.645 46.9073 133.811 46.9288 133.833 47.1742C133.856 47.4604 133.708 47.5422 133.46 47.5422C132.927 47.5422 132.388 47.581 131.859 47.5336C131.207 47.4755 130.919 47.624 130.951 48.373C130.979 49.0165 131.065 49.3479 131.812 49.2618C132.408 49.193 133.021 49.2382 133.624 49.2532C133.841 49.2597 134.151 49.1392 134.179 49.5416C134.207 49.9484 133.91 49.8752 133.673 49.8838C133.46 49.8924 133.245 49.8967 133.032 49.8838C132.152 49.8343 130.959 50.2648 130.477 49.7224C130.023 49.2102 130.303 48.0501 130.262 47.1914L130.264 47.1936Z" fill="#020202"/>
<path d="M180.142 47.2C180.142 46.3563 179.808 45.2135 180.228 44.7443C180.734 44.1805 181.9 44.626 182.778 44.5636C182.955 44.5506 183.133 44.5636 183.312 44.5636C183.568 44.5636 183.826 44.5528 183.786 44.9359C183.751 45.2523 183.51 45.1963 183.314 45.2006C182.817 45.2092 182.309 45.263 181.821 45.1898C180.921 45.0586 180.645 45.3878 180.729 46.2746C180.777 46.7825 180.895 46.9547 181.401 46.9159C181.932 46.875 182.468 46.8944 183.002 46.9138C183.247 46.9224 183.626 46.7739 183.605 47.2581C183.587 47.6606 183.265 47.5336 183.047 47.5422C182.585 47.5594 182.115 47.5982 181.661 47.5357C180.906 47.4346 180.71 47.7101 180.723 48.4547C180.736 49.1155 180.902 49.3221 181.558 49.264C182.229 49.2037 182.91 49.2489 183.585 49.2532C183.762 49.2532 183.932 49.2704 183.953 49.5179C183.979 49.8042 183.835 49.8903 183.583 49.8881C182.55 49.8881 181.519 49.8752 180.488 49.8946C180.041 49.9032 180.077 49.6234 180.079 49.3328C180.082 48.6226 180.079 47.9124 180.079 47.2043C180.101 47.2043 180.12 47.2043 180.142 47.2043V47.2Z" fill="#020202"/>
<path d="M107.517 40.3732C107.517 39.5296 107.192 38.4212 107.606 37.9154C108.049 37.3752 109.205 37.7992 110.048 37.7454C110.296 37.7303 110.546 37.7411 110.795 37.7454C110.978 37.7497 111.137 37.7755 111.155 38.0187C111.176 38.3071 111.026 38.3824 110.776 38.3824C110.064 38.3824 109.351 38.4104 108.641 38.376C107.862 38.3372 108.144 38.8968 108.131 39.2498C108.116 39.62 107.911 40.1516 108.669 40.0956C109.271 40.0504 109.878 40.0848 110.483 40.087C110.731 40.087 111.004 40.0547 110.972 40.4443C110.946 40.7606 110.711 40.7197 110.509 40.7219C109.939 40.7283 109.364 40.78 108.802 40.7111C107.95 40.6078 108.155 41.176 108.109 41.6409C108.058 42.1918 108.155 42.5039 108.826 42.4415C109.495 42.3791 110.178 42.4243 110.853 42.4307C111.051 42.4307 111.29 42.3877 111.318 42.7062C111.353 43.1001 111.077 43.0656 110.832 43.0656C109.872 43.0678 108.91 43.0463 107.95 43.0764C107.489 43.0915 107.427 42.8784 107.438 42.4996C107.459 41.7915 107.444 41.0813 107.444 40.3711C107.468 40.3711 107.492 40.3711 107.515 40.3711L107.517 40.3732Z" fill="#020202"/>
<path d="M119.456 40.4033C119.456 39.5554 119.122 38.4233 119.542 37.9369C120.043 37.3558 121.212 37.8164 122.088 37.7475C122.23 37.7367 122.374 37.7324 122.514 37.7475C122.76 37.7776 123.138 37.6076 123.112 38.0962C123.091 38.4986 122.77 38.3695 122.555 38.3781C122.058 38.3953 121.556 38.4125 121.061 38.3781C120.431 38.3329 120.033 38.3523 120.043 39.2218C120.054 40.0332 120.343 40.1687 121.029 40.0999C121.522 40.0504 122.023 40.0891 122.523 40.0913C122.747 40.0913 122.949 40.1063 122.94 40.4205C122.932 40.7369 122.716 40.7283 122.503 40.7283C121.899 40.7305 121.287 40.7843 120.691 40.7154C119.964 40.6336 120.054 41.0963 120.091 41.5096C120.125 41.8927 119.809 42.4974 120.655 42.4415C121.363 42.3963 122.077 42.4307 122.79 42.4329C123.031 42.4329 123.313 42.3855 123.285 42.7858C123.263 43.1043 123.029 43.0613 122.826 43.0678C122.577 43.0764 122.327 43.0871 122.079 43.0678C121.203 42.9989 120.035 43.4638 119.536 42.8762C119.116 42.3812 119.449 41.2535 119.449 40.4055C119.449 40.4055 119.454 40.4055 119.456 40.4055V40.4033Z" fill="#020202"/>
<path d="M182.642 40.173C182.72 39.4951 182.268 38.3501 182.817 37.9046C183.338 37.4806 184.44 37.7712 185.287 37.7475C185.359 37.7475 185.436 37.7281 185.501 37.7497C185.787 37.8487 186.329 37.4828 186.329 38.066C186.329 38.6493 185.793 38.3372 185.501 38.3738C185.081 38.4255 184.642 38.4341 184.222 38.376C183.467 38.2705 183.273 38.5524 183.286 39.2949C183.297 39.9578 183.469 40.1774 184.123 40.0999C184.579 40.0461 185.049 40.0676 185.509 40.0999C185.748 40.1149 186.135 39.9191 186.163 40.3883C186.194 40.8747 185.8 40.7111 185.557 40.724C185.167 40.7477 184.767 40.78 184.384 40.7197C183.488 40.5777 183.206 40.9113 183.29 41.8001C183.338 42.3037 183.452 42.4738 183.962 42.4436C184.672 42.4027 185.384 42.4329 186.097 42.435C186.312 42.435 186.523 42.435 186.523 42.7535C186.523 43.0721 186.308 43.0678 186.095 43.0699C185.098 43.0721 184.102 43.0592 183.105 43.0785C182.713 43.0871 182.632 42.9085 182.64 42.5663C182.657 41.8216 182.645 41.077 182.645 40.173H182.642Z" fill="#020202"/>
<path d="M59.6656 13.66C62.8444 16.8023 66.0081 19.9595 69.202 23.0845C72.3894 26.2009 75.6069 29.285 78.8116 32.3842C78.7556 32.466 78.6975 32.5478 78.6415 32.6296C78.5253 32.5478 78.3983 32.4811 78.2972 32.3864C72.1548 26.5388 66.1867 20.5191 60.1799 14.5338C59.9367 14.2906 59.6031 14.0862 59.6634 13.66H59.6656Z" fill="#999A9D"/>
<path d="M170.715 49.789C171.317 48.2179 171.918 46.6468 172.527 45.08C172.622 44.8368 172.658 44.5527 173.065 44.5463C173.461 44.5398 173.53 44.7916 173.633 45.0456C174.223 46.4789 174.813 47.9123 175.379 49.3543C175.435 49.4942 175.691 49.746 175.374 49.8558C175.174 49.9268 174.873 50.0086 174.731 49.6922C174.66 49.5329 174.563 49.3715 174.539 49.2015C174.389 48.1512 173.65 48.2115 172.835 48.1534C171.97 48.0909 171.86 48.6225 171.683 49.1843C171.539 49.6427 171.41 50.1033 170.715 49.789Z" fill="#0B0C0C"/>
<path d="M211.443 42.9752C210.712 43.2895 210.492 42.8418 210.408 42.3145C210.245 41.2901 209.521 41.4041 208.76 41.3353C207.914 41.2599 207.752 41.7334 207.58 42.3339C207.513 42.5663 207.425 42.8138 207.27 42.986C207.184 43.0829 206.924 43.0936 206.771 43.0463C206.506 42.9623 206.681 42.7772 206.739 42.6287C207.309 41.1502 207.879 39.6738 208.447 38.193C208.536 37.9649 208.579 37.7454 208.919 37.7282C209.295 37.7066 209.399 37.9219 209.509 38.193C210.152 39.7878 210.798 41.3805 211.441 42.9731L211.443 42.9752Z" fill="#0B0C0C"/>
<path d="M130.768 42.9838C131.362 41.417 131.941 39.8674 132.545 38.3286C132.647 38.0682 132.679 37.7174 133.15 37.7281C133.617 37.7411 133.628 38.0983 133.736 38.3544C134.371 39.8825 134.982 41.4235 135.602 42.9645C134.922 43.283 134.676 42.8977 134.586 42.3511C134.424 41.374 133.766 41.3912 132.963 41.3245C132.044 41.247 131.893 41.785 131.725 42.3941C131.586 42.9085 131.392 43.2442 130.766 42.9817L130.768 42.9838Z" fill="#0B0C0C"/>
<path d="M154.907 42.9708C155.512 41.3976 156.112 39.8265 156.723 38.2554C156.82 38.0079 156.863 37.7345 157.268 37.7281C157.668 37.7238 157.728 37.9863 157.83 38.236C158.406 39.6371 158.983 41.0382 159.534 42.4479C159.601 42.62 159.9 42.8869 159.56 43.0376C159.321 43.143 158.988 43.1602 158.871 42.775C158.83 42.6416 158.749 42.5146 158.729 42.379C158.587 41.4148 157.942 41.3825 157.126 41.3309C156.246 41.2749 156.041 41.7312 155.869 42.3747C155.744 42.846 155.591 43.2894 154.905 42.9708H154.907Z" fill="#0B0C0C"/>
<path d="M194.576 40.3753C194.563 38.3888 196.347 37.1362 198.013 37.9562C198.34 38.1177 198.612 38.3372 198.779 38.6579C198.881 38.8537 199.16 39.0732 198.859 39.2928C198.564 39.5058 198.403 39.3487 198.211 39.0539C197.66 38.2059 196.87 38.2188 196.074 38.6536C195.336 39.056 195.084 40.3194 195.452 41.3438C195.769 42.2262 196.447 42.5081 197.292 42.4027C197.753 42.3446 198.138 42.054 198.353 41.6064C198.472 41.361 198.554 41.0317 198.939 41.2577C199.339 41.4923 199.033 41.7656 198.922 41.9766C198.521 42.732 197.865 43.0699 197.013 43.0785C196.13 43.0871 195.426 42.7793 194.968 42.0045C194.671 41.5031 194.596 40.9456 194.578 40.3775L194.576 40.3753Z" fill="#0F0F10"/>
<path d="M79.029 31.9903C78.5426 31.9581 78.3188 31.5513 78.0261 31.2607C74.6837 27.9399 71.3994 24.5588 67.9946 21.3046C65.412 18.8339 62.8573 16.3374 60.3156 13.8257C60.1671 13.6794 59.9798 13.5739 59.8098 13.4491C59.7194 13.2576 59.6462 13.0639 59.7689 12.8572C59.8442 12.7712 59.9346 12.7539 60.0401 12.7927C60.0595 13.1456 60.3005 13.3609 60.5286 13.5868C66.5979 19.5721 72.6692 25.5596 78.7406 31.5427C78.8396 31.6395 78.9709 31.7062 79.0871 31.7859C79.0677 31.8547 79.0484 31.9215 79.0311 31.9903H79.029Z" fill="#5F5F61"/>
<path d="M0.189178 19.6345C0.219309 20.136 0.57227 20.1381 0.946754 20.1381C4.4613 20.136 7.9737 20.1252 11.4882 20.1532C11.9531 20.1575 12.2006 19.9703 12.4223 19.6345C12.5407 19.5635 12.6397 19.585 12.7193 19.6969C12.8269 20.1984 12.7624 20.6525 12.347 21.0076C12.22 21.0442 12.093 21.0507 11.9617 21.027C8.49238 20.9667 5.02518 21.0227 1.55798 20.9969C1.03715 20.9925 0.48403 21.0959 0.0363716 20.702C0.0535892 20.3404 -0.129348 19.9509 0.189178 19.6345Z" fill="#DADBDD"/>
<path d="M149.742 46.6404C149.742 46.1088 149.742 45.5772 149.742 45.0457C149.742 44.7895 149.727 44.5291 150.112 44.5657C150.413 44.5958 150.403 44.8154 150.403 45.0284C150.403 45.9496 150.418 46.8707 150.403 47.7919C150.387 48.6829 150.766 49.1951 151.696 49.2468C152.641 49.2984 153.084 48.7883 153.129 47.9188C153.179 46.9633 153.155 46.0055 153.162 45.05C153.162 44.796 153.138 44.5313 153.527 44.5657C153.829 44.5937 153.829 44.8111 153.82 45.0241C153.771 46.1885 153.96 47.3657 153.685 48.5193C153.45 49.5072 152.779 49.9376 151.606 49.8881C150.512 49.8429 149.897 49.3458 149.791 48.3385C149.733 47.779 149.781 47.2065 149.781 46.6404C149.768 46.6404 149.755 46.6404 149.742 46.6404Z" fill="#101110"/>
<path d="M87.7412 13.4448C87.6594 13.4448 87.5776 13.447 87.4958 13.4491C87.0633 13.7031 86.579 13.7784 86.0969 13.8688C85.5546 13.8839 85.0122 13.8968 84.4677 13.9118C84.3063 13.9742 84.1427 14.0367 83.9813 14.0991C83.7575 13.8451 83.4217 13.8021 83.1441 13.6514C82.4145 13.2576 82.4253 12.8314 83.1613 12.2632C83.9942 11.9576 84.8465 11.8522 85.7332 11.9361C86.7254 12.0287 87.541 12.3192 87.739 13.4448H87.7412Z" fill="#0E0E0F"/>
<path d="M17.9817 34.3104C18.2981 34.672 18.3433 34.8098 17.7385 34.8055C13.1177 34.7732 8.4948 34.7796 3.87402 34.771C2.66448 34.7689 1.4571 34.7603 0.247559 34.7538C0.247559 34.6161 0.249711 34.4762 0.251863 34.3384C0.553172 34.0866 0.919046 34.1275 1.27201 34.1275C6.49971 34.1232 11.7274 34.1232 16.9551 34.1275C17.3059 34.1275 17.6718 34.0759 17.9839 34.3104H17.9817Z" fill="#EEEFF0"/>
<path d="M17.9815 34.3104C12.0716 34.319 6.15946 34.3276 0.249512 34.3362C0.262425 34.1748 0.27749 34.0134 0.290404 33.852C5.84094 33.852 11.3915 33.852 16.942 33.8412C17.3574 33.8412 17.8072 33.9574 18.158 33.6088C18.2269 33.8756 18.0977 34.0909 17.9794 34.3082L17.9815 34.3104Z" fill="#BDBBBD"/>
<path d="M33.5744 29.864C33.9682 30.1051 34.2459 30.3504 34.233 30.9164C34.1856 32.9976 34.2007 35.0788 34.2244 37.1621C34.2287 37.5926 34.1017 37.9068 33.781 38.1672C33.5507 38.1586 33.3032 38.2038 33.1396 37.9757C33.2128 37.8229 33.3463 37.6701 33.3463 37.5173C33.3592 35.167 33.3592 32.8147 33.3441 30.4645C33.3441 30.2686 33.2107 30.0728 33.1396 29.8769C33.2838 29.8726 33.428 29.8683 33.5722 29.864H33.5744Z" fill="#E2E3E3"/>
<path d="M18.5821 35.8406C18.3432 34.9884 18.4185 34.1146 18.4142 33.2472C18.4142 33.1052 18.4142 32.961 18.4164 32.8189C18.679 32.5198 18.8468 32.0183 19.359 32.1518C19.8132 32.2701 19.8971 32.735 20.0176 33.1332C20.1166 33.4581 20.3362 33.7616 20.1446 34.121C19.9509 34.9905 20.2027 36.0666 19.0427 36.4885C18.8188 36.3227 18.5434 36.1936 18.5821 35.8406Z" fill="#141415"/>
<path d="M86.979 43.4465C87.0328 43.3368 86.9854 43.283 86.8757 43.2636C86.8348 43.2851 86.7939 43.3066 86.753 43.3303C86.697 43.2528 86.6669 43.1667 86.6626 43.0699C86.7056 42.7815 86.6389 42.5082 86.5636 42.2327C86.4 41.671 86.8176 41.2297 86.8821 40.7154C87.0973 40.3108 87.0952 39.6737 87.8355 39.8394C88.6211 40.7842 88.804 42.4931 88.2509 43.5154C87.7645 44.415 87.3857 43.7973 86.979 43.4487V43.4465Z" fill="#0F1011"/>
<path d="M55.3911 33.258C55.8754 33.3355 56.0648 32.9266 56.3273 32.6662C58.7098 30.2966 61.0729 27.9076 63.4662 25.5488C63.7223 25.297 63.9418 24.5932 64.5294 25.1959C64.3809 25.6091 64.0731 25.8996 63.7718 26.2009C61.4689 28.4952 59.1725 30.798 56.8589 33.0815C56.5512 33.385 56.3144 33.8606 55.7419 33.7466C55.5956 33.6045 55.3911 33.5012 55.3911 33.2559V33.258Z" fill="#616264"/>
<path d="M13.8774 28.7298C13.8861 28.125 13.8968 27.5202 13.9054 26.9176C13.9119 26.8358 13.9162 26.754 13.9226 26.6723C13.8215 26.2375 14.1831 26.0094 14.3617 25.6973H14.3574C14.7685 25.5015 15.0009 25.7081 15.2075 26.046C15.8596 27.1199 15.6638 28.861 14.7663 29.8338C14.3402 29.9759 14.2605 29.6552 14.1465 29.3776C14.0582 29.1624 13.9678 28.945 13.8796 28.7298H13.8774Z" fill="#141516"/>
<path d="M161.286 44.5613C161.781 44.5613 162.279 44.5613 162.774 44.5613C163.019 44.5613 163.288 44.5269 163.256 44.9186C163.23 45.235 162.991 45.2307 162.799 45.1919C161.577 44.9466 161.409 45.5836 161.519 46.5887C161.598 47.3226 161.581 48.0737 161.514 48.8098C161.482 49.1628 161.859 49.8127 161.233 49.8429C160.518 49.8773 160.927 49.1929 160.901 48.8614C160.832 47.9489 160.826 47.0235 160.895 46.1109C160.951 45.3684 160.727 45.0972 159.971 45.1769C159.707 45.2049 159.145 45.4588 159.173 44.8562C159.199 44.2923 159.722 44.6087 160.017 44.5721C160.434 44.5205 160.865 44.5592 161.288 44.5592L161.286 44.5613Z" fill="#010101"/>
<path d="M12.431 20.9173C12.4826 20.489 12.5321 20.0629 12.5838 19.6346C12.6096 19.0406 12.6699 18.4767 13.4942 18.5499C14.4713 19.6432 14.3292 20.8786 13.9289 22.1333C13.8041 22.525 13.5652 22.8457 13.0594 22.6283C12.8851 22.4841 12.672 22.3765 12.5795 22.1505C12.5601 22.1096 12.5408 22.0687 12.5214 22.0278C12.4891 21.9461 12.4654 21.86 12.4482 21.7717C12.4181 21.5587 12.3707 21.3456 12.3255 21.1347C12.3212 21.0443 12.3578 20.9711 12.431 20.9173Z" fill="#111213"/>
<path d="M12.7842 22.6369C12.8487 22.9597 12.64 22.9662 12.4118 22.964C8.59596 22.9597 4.78011 22.9576 0.962096 22.9468C0.871703 22.9468 0.781311 22.8564 0.690918 22.8091C0.761941 22.3119 1.17516 22.342 1.5023 22.342C5.15028 22.3507 8.79612 22.2301 12.4441 22.4002C12.5797 22.4454 12.6938 22.525 12.782 22.6369H12.7842Z" fill="#111112"/>
<path d="M211.865 40.3323C211.865 39.6587 211.858 38.9872 211.869 38.3135C211.873 38.0876 211.777 37.7755 212.162 37.754C212.614 37.7303 212.538 38.0768 212.538 38.3458C212.543 39.4434 212.588 40.5432 212.523 41.6387C212.483 42.3231 212.721 42.5082 213.358 42.4372C213.815 42.3877 214.282 42.4264 214.742 42.4285C214.979 42.4285 215.151 42.4931 215.13 42.7901C215.113 43.0333 214.949 43.0677 214.77 43.0677C213.918 43.0742 213.066 43.0678 212.214 43.0721C211.835 43.0721 211.865 42.8095 211.865 42.562C211.865 41.8173 211.865 41.0748 211.865 40.3301V40.3323Z" fill="#181919"/>
<path d="M175.975 47.1462C175.975 46.4726 175.969 45.8011 175.979 45.1275C175.984 44.9015 175.887 44.5894 176.274 44.57C176.728 44.5485 176.649 44.895 176.651 45.1619C176.655 46.2595 176.7 47.3593 176.636 48.4548C176.595 49.1435 176.838 49.3221 177.473 49.2511C177.929 49.2016 178.396 49.2403 178.857 49.2425C179.096 49.2425 179.266 49.3092 179.242 49.6041C179.223 49.8473 179.059 49.8795 178.883 49.8817C178.03 49.8881 177.178 49.8817 176.326 49.8838C175.947 49.8838 175.979 49.6213 175.979 49.3738C175.979 48.6291 175.979 47.8866 175.979 47.1419L175.975 47.1462Z" fill="#181919"/>
<path d="M20.1445 34.1211C20.0864 33.8865 20.0261 33.6519 19.968 33.4173C19.643 32.1432 19.3654 32.0356 18.4163 32.819C18.3818 32.578 18.9242 32.1518 18.1494 32.154C12.4331 32.1755 6.71902 32.1776 1.00277 32.1906C0.903768 32.1906 0.802615 32.2594 0.703613 32.2939C0.938204 31.8096 1.38586 31.999 1.74098 31.999C7.39697 31.9882 13.0508 31.9882 18.7068 31.9926C19.9099 31.9926 20.4759 32.8405 20.1445 34.1189V34.1211Z" fill="#FDFCFD"/>
<path d="M85.2746 35.1929V14.3617C85.3435 14.3617 85.4124 14.3617 85.4791 14.3617C85.4791 21.3047 85.4791 28.2499 85.4791 35.1929H85.3758H85.2725H85.2746Z" fill="#F9F9F8"/>
<path d="M64.9149 25.6392C63.7505 26.7175 62.5819 27.7915 61.5445 28.9967C60.0122 30.8131 58.2237 32.3778 56.5686 34.0737C56.4029 34.2438 56.2049 34.276 55.9897 34.1598C55.9273 34.0759 55.8627 33.992 55.8003 33.9102C57.5673 32.3843 59.1211 30.6453 60.7999 29.029C62.0718 27.8044 63.2598 26.4958 64.5791 25.3229C64.747 25.3702 64.8869 25.4477 64.9149 25.6414V25.6392Z" fill="#A7A8AB"/>
<path d="M64.5766 25.3207C63.3865 26.8294 61.9144 28.0669 60.5821 29.44C59.3231 30.7399 58.0275 32.0076 56.7383 33.2795C56.4693 33.5464 56.2541 33.9144 55.7956 33.908C55.7504 33.8649 55.7311 33.8111 55.7375 33.7487C57.8166 31.943 59.6481 29.8833 61.6303 27.9765C62.5945 27.0489 63.5608 26.1234 64.525 25.198C64.5702 25.2281 64.5874 25.269 64.5766 25.3207Z" fill="#95979A"/>
<path d="M193.442 40.4528C193.442 41.1566 193.442 41.8603 193.442 42.5641C193.442 42.8138 193.461 43.0634 193.089 43.072C192.71 43.0806 192.725 42.8374 192.725 42.5813C192.725 41.1393 192.725 39.6952 192.725 38.2532C192.725 38.0079 192.684 37.7453 193.07 37.7432C193.436 37.7432 193.44 37.9756 193.44 38.236C193.436 38.9742 193.44 39.7146 193.44 40.4528H193.442Z" fill="#0D0D0C"/>
<path d="M200.706 40.4485C200.706 41.1523 200.706 41.856 200.706 42.5598C200.706 42.8073 200.732 43.0591 200.357 43.072C199.981 43.0828 199.989 42.8439 199.991 42.5856C199.991 41.1415 199.991 39.6995 199.991 38.2554C199.991 38.0144 199.946 37.7475 200.331 37.741C200.697 37.7367 200.708 37.9649 200.706 38.2296C200.702 38.9678 200.706 39.7081 200.706 40.4463V40.4485Z" fill="#0D0D0C"/>
<path d="M118.035 40.3194C118.035 41.0576 118.037 41.798 118.035 42.5362C118.035 42.7708 118.093 43.0463 117.712 43.0678C117.254 43.0936 117.325 42.7729 117.323 42.5018C117.321 41.0942 117.319 39.6867 117.323 38.2791C117.323 38.0489 117.25 37.7669 117.639 37.7454C118.089 37.7217 118.035 38.0359 118.035 38.3136C118.035 38.9829 118.035 39.6501 118.035 40.3194Z" fill="#0D0D0C"/>
<path d="M95.177 40.4658C95.177 41.1696 95.177 41.8733 95.177 42.5771C95.177 42.8354 95.177 43.0721 94.8112 43.0721C94.4238 43.0721 94.4625 42.8117 94.4625 42.5663C94.4625 41.1222 94.4625 39.6802 94.4625 38.2361C94.4625 37.9821 94.441 37.7346 94.8219 37.7411C95.1942 37.7497 95.177 37.9951 95.177 38.2469C95.177 38.9851 95.177 39.7254 95.177 40.4636V40.4658Z" fill="#0D0D0C"/>
<path d="M169.443 47.129C169.443 46.4252 169.447 45.7214 169.441 45.0177C169.439 44.7357 169.488 44.5377 169.839 44.5635C170.134 44.5851 170.158 44.7745 170.158 44.9961C170.158 46.4747 170.153 47.9533 170.16 49.4318C170.16 49.7202 170.097 49.9096 169.755 49.8859C169.366 49.8601 169.45 49.5739 169.447 49.3457C169.441 48.6075 169.445 47.8672 169.445 47.129H169.443Z" fill="#0D0D0C"/>
<path d="M137.902 47.2431C137.902 47.9124 137.913 48.5817 137.896 49.2489C137.889 49.4964 138.032 49.8494 137.573 49.8817C137.113 49.9161 137.188 49.5847 137.188 49.3156C137.186 47.9081 137.184 46.5006 137.188 45.0909C137.188 44.8584 137.119 44.5786 137.506 44.5593C137.96 44.5377 137.898 44.8541 137.9 45.1296C137.902 45.8334 137.9 46.5371 137.9 47.2409L137.902 47.2431Z" fill="#0D0D0C"/>
<path d="M130.178 40.4572C130.178 41.1631 130.178 41.8668 130.178 42.5728C130.178 42.8181 130.219 43.0936 129.825 43.0699C129.53 43.0527 129.509 42.8547 129.509 42.6309C129.509 41.1502 129.509 39.6694 129.509 38.1866C129.509 37.9671 129.524 37.7626 129.819 37.7432C130.206 37.7152 130.178 37.9843 130.178 38.2339C130.178 38.9743 130.178 39.7146 130.178 40.455V40.4572Z" fill="#1D1D1C"/>
<path d="M0.223947 21.9783C-0.00418653 21.8169 0.0496186 21.5823 0.0668362 21.3585C0.277752 21.1389 0.54893 21.0593 0.839477 21.0615C4.53051 21.0765 8.22369 20.9517 11.9147 21.1239C12.0482 21.1669 12.1622 21.2422 12.2548 21.3477C12.2827 21.4941 12.2332 21.6081 12.1063 21.6899C11.6392 21.9245 11.1356 21.8492 10.6449 21.8513C7.35205 21.8707 4.05917 21.8298 0.768455 21.875C0.645779 21.8922 0.525256 21.9159 0.404732 21.9482C0.34447 21.9589 0.282057 21.9697 0.221795 21.9783H0.223947Z" fill="#BCBCC0"/>
<path d="M12.4313 20.9173C12.4786 20.9711 12.4851 21.0271 12.4506 21.0895C12.5389 21.3327 12.4205 21.3843 12.2096 21.3499L12.2139 21.3413C11.8846 21.1433 11.523 21.238 11.1765 21.238C7.81478 21.2294 4.45303 21.238 1.09129 21.2294C0.742634 21.2294 0.383216 21.3112 0.0474722 21.139C0.04532 21.0658 0.0431678 20.9926 0.0410156 20.9195C0.40689 20.7172 0.805048 20.8205 1.18814 20.8183C4.5176 20.8097 7.84706 20.8097 11.1765 20.8183C11.523 20.8183 11.8867 20.7301 12.2182 20.9173C12.2914 20.9173 12.3624 20.9173 12.4356 20.9173H12.4313Z" fill="#E8E9EB"/>
<path d="M0.441005 22.4088C0.251611 22.3248 0.253764 22.144 0.223633 21.9783L0.305417 22.0041C0.555072 21.7373 0.886512 21.7739 1.20289 21.7739C4.75402 21.7674 8.30516 21.7695 11.8563 21.7739C12.1425 21.7739 12.4266 21.7782 12.6634 21.974L12.6397 21.9977C12.6612 22.2646 12.4761 22.3313 12.2717 22.3851C8.39555 22.4518 4.51728 22.3872 0.64116 22.4174C0.574442 22.4174 0.507724 22.4152 0.441005 22.4131V22.4088Z" fill="#7C7D80"/>
<path d="M12.629 22.6261C8.98321 22.6261 5.33738 22.6175 1.69155 22.6261C1.35365 22.6261 0.977016 22.4949 0.690773 22.8091C0.482009 22.7531 0.466943 22.5766 0.438965 22.4088L0.518596 22.4303C0.837123 22.1979 1.203 22.3119 1.5452 22.3119C5.10925 22.3033 8.67545 22.3055 12.2395 22.3076C12.4526 22.3141 12.6635 22.3227 12.629 22.6283V22.6261Z" fill="#4D4C4F"/>
<path d="M0.0473633 21.1389C3.77068 21.1368 7.49399 21.1303 11.2173 21.1346C11.5573 21.1346 11.9361 21.0141 12.2138 21.3412C8.16548 21.3477 4.11503 21.352 0.0667331 21.3584C0.0602765 21.2853 0.0538199 21.2121 0.0473633 21.1389Z" fill="#D2D3D4"/>
<path d="M12.2138 20.9172C8.15473 20.9172 4.09783 20.9172 0.0387733 20.9194C0.0387733 20.8484 0.0387733 20.7752 0.0366211 20.7042C3.72765 20.7042 7.41868 20.7042 11.1097 20.7171C11.482 20.7171 11.8996 20.5729 12.2159 20.9172H12.2138Z" fill="#F5F5F5"/>
<path d="M55.9897 34.1597C56.4654 34.1124 56.7021 33.7271 57.0013 33.4387C58.5207 31.9623 60.0316 30.4795 61.5467 28.9966C61.5683 29.5002 61.1464 29.7154 60.8645 30.0081C59.3945 31.5233 57.9117 33.0277 56.4331 34.5364C56.2846 34.4115 56.1382 34.2867 55.9897 34.1597Z" fill="#D6D8D9"/>
<path d="M77.1608 16.4191C78.6114 16.6817 78.7169 16.6107 78.6975 15.3774C78.8073 15.9779 79.5067 16.46 79.0806 17.1595C78.988 17.3101 78.9299 17.6136 78.6609 17.5383C78.4285 17.4737 78.4392 17.2068 78.3897 17.0067C78.0023 16.8044 77.4987 17.0024 77.1565 16.6451C77.1027 16.5934 77.0855 16.5439 77.1049 16.4944C77.1242 16.4449 77.1414 16.4191 77.1608 16.4191Z" fill="white"/>
<path d="M83.1634 12.2611C82.4467 12.8099 82.578 13.2339 83.3399 13.6062C83.5767 13.7225 84.0243 13.6062 83.9834 14.0969C83.4217 14.069 82.9956 13.7095 82.5092 13.4965C82.5909 13.0122 82.1777 12.2676 83.1656 12.2611H83.1634Z" fill="#F7F8F9"/>
<path d="M130.604 36.3421C130.271 36.7316 130.176 37.3149 129.377 37.3063C129.655 36.7316 129.629 36.0085 130.604 36.3421Z" fill="#292A2A"/>
<path d="M60.0402 12.7926C59.9778 12.8077 59.9175 12.8271 59.8573 12.8486C59.726 12.6936 59.7346 12.5301 59.8357 12.3644C59.8573 12.0889 59.8766 11.8134 59.8982 11.5379C60.1091 11.2775 60.32 11.0451 60.4836 11.5745C60.0553 11.8801 60.3071 12.4289 60.0424 12.7926H60.0402Z" fill="#F9FAFA"/>
<path d="M73.9518 13.0294C74.1541 13.3888 74.3543 13.7483 74.5566 14.1077C74.5071 14.211 74.492 14.3423 74.3478 14.3724C74.0465 14.0496 73.7861 13.7074 73.7495 13.2446C73.8162 13.1736 73.8829 13.1026 73.9518 13.0316V13.0294Z" fill="#D8D7D8"/>
<path d="M13.4942 18.552C12.8119 18.5972 12.7796 19.1848 12.5838 19.6368L12.502 19.6303L12.4202 19.6368C12.3126 19.1374 12.7516 18.8125 12.827 18.3713C13.0702 18.3562 13.3177 18.3175 13.4942 18.552Z" fill="#E8E9EA"/>
<path d="M87.8335 39.8373C87.2481 39.8459 87.1921 40.3775 86.9511 40.7262C86.8973 40.8273 86.8413 40.8273 86.7875 40.7262C86.7143 40.3065 87.1254 40.0569 87.1599 39.6759C87.4009 39.6652 87.6527 39.6027 87.8335 39.8373Z" fill="#E8E9EB"/>
<path d="M55.9614 15.9952C56.2649 15.8768 56.5662 15.7606 56.8697 15.6422C56.9859 15.6766 57.1236 15.6853 57.1516 15.8445C56.9493 16.0533 56.7039 16.163 56.4134 16.1781C56.2627 16.1178 56.1121 16.0554 55.9614 15.9952Z" fill="#DADADB"/>
<path d="M14.1444 29.3776C14.3511 29.5304 14.5577 29.6833 14.7643 29.8339C14.5964 30.1072 14.3489 30.1094 14.0777 30.0384C14.265 29.8339 13.8668 29.5713 14.1444 29.3755V29.3776Z" fill="#CACBCC"/>
<path d="M18.5823 35.8406C18.7351 36.0558 18.8879 36.2732 19.0429 36.4884C18.9633 36.5487 18.8836 36.6111 18.804 36.6713C18.6727 36.3916 18.5414 36.1118 18.4102 35.8298C18.4683 35.8471 18.5242 35.8492 18.5845 35.8406H18.5823Z" fill="#FDFFFF"/>
<path d="M12.6291 22.6262C12.5774 22.5422 12.5279 22.4583 12.4762 22.3765C12.4246 22.3485 12.3729 22.3205 12.3213 22.2904C12.3729 22.2603 12.4246 22.2323 12.4762 22.2022C12.5301 22.1333 12.586 22.0623 12.6398 21.9934C12.7797 22.2043 12.9196 22.4152 13.0595 22.6283C12.967 22.6305 12.8766 22.6348 12.784 22.6369L12.7044 22.6606L12.6291 22.6283V22.6262Z" fill="#B9B9BA"/>
<path d="M209.203 22.6777C209.201 27.6385 205.484 31.3145 200.471 31.3145C195.411 31.3145 191.832 27.7246 191.834 22.6605C191.837 17.6609 195.476 14.1292 200.615 14.1399C205.495 14.1507 209.205 17.8396 209.203 22.6799V22.6777Z" fill="white"/>
<path d="M125.897 17.7923C125.897 16.9077 125.917 16.0232 125.891 15.1386C125.878 14.6845 126.031 14.4865 126.5 14.5253C127.595 14.6156 128.704 14.6049 129.782 14.7878C131.396 15.0612 132.354 16.346 132.298 17.9709C132.246 19.4925 131.17 20.7085 129.608 20.913C128.626 21.0421 127.628 21.04 126.642 21.1368C126.003 21.1992 125.861 20.913 125.887 20.3405C125.925 19.4925 125.897 18.6424 125.897 17.7923Z" fill="white"/>
<path d="M86.7878 40.7262C86.8416 40.7262 86.8976 40.7262 86.9514 40.7262C86.9019 41.2901 86.8523 41.8561 86.805 42.42C86.2583 42.9107 85.5847 42.7234 84.967 42.7234C66.6453 42.7342 48.3214 42.7321 29.9997 42.7321C21.2123 42.7321 12.4248 42.7342 3.6374 42.7256C3.07998 42.7256 2.49027 42.8569 1.98666 42.4781C1.90702 42.2543 2.00603 42.1488 2.22555 42.1294C2.50964 42.1036 2.79373 42.1165 3.07998 42.1165C30.4431 42.1165 57.8062 42.1165 85.1672 42.123C85.5008 42.123 85.8688 41.9852 86.0065 42.1036C85.843 42.0627 85.4771 42.1144 85.122 42.1144C57.7589 42.1101 30.3957 42.1144 3.03478 42.0928C2.60003 42.0928 1.73915 42.5125 1.90272 41.4106L1.98235 41.3503C2.36975 41.3805 2.75714 41.4343 3.14454 41.4343C30.555 41.4386 57.9633 41.4386 85.3738 41.4386C85.9699 41.4386 86.6285 41.5763 86.7921 40.7262H86.7878Z" fill="#E7E6E8"/>
<path d="M57.1516 15.8445C57.0569 15.7778 56.9622 15.709 56.8696 15.6422C57.2161 15.399 57.5626 15.158 57.9113 14.9148C57.9974 15.003 58.0835 15.0913 58.1717 15.1817C58.0211 15.3194 57.8683 15.4571 57.7176 15.5949C57.5304 15.6788 57.341 15.7606 57.1537 15.8445H57.1516Z" fill="#E4E3E4"/>
<path d="M77.1607 16.4192C77.1607 16.4945 77.1608 16.5698 77.1586 16.6452C76.5818 16.5548 76.1772 16.8066 75.779 17.2177C74.477 18.5671 73.0888 19.839 71.8319 21.2272C71.1131 22.0235 70.646 21.8815 70.123 21.1196C70.2048 20.6612 70.5815 20.4201 70.872 20.121C72.2064 18.7543 73.5989 17.4436 74.9074 16.0512C75.0796 15.8682 75.2345 15.6745 75.5186 15.6831C75.8544 15.7886 76.104 16.1286 76.5086 16.0447C76.7712 16.0899 77.0079 16.1803 77.1607 16.417V16.4192Z" fill="#D9D9DA"/>
<path d="M74.3479 14.3703C74.4168 14.2821 74.4857 14.1938 74.5567 14.1056C74.7848 14.4069 75.0108 14.7082 75.2389 15.0095C75.4154 15.2312 75.4369 15.4615 75.2368 15.6745C73.5365 17.4953 71.8729 19.3527 69.9015 20.8958C69.2128 20.4632 69.372 20.078 69.8886 19.5808C71.294 18.2271 72.6477 16.8195 74.0359 15.4464C74.3544 15.1322 74.6471 14.8459 74.3501 14.3703H74.3479Z" fill="#DDDCDE"/>
<path d="M69.8991 20.8958C71.4552 19.3118 73.0134 17.7299 74.5673 16.1437C74.8836 15.8231 75.2947 15.554 75.2366 15.0095C75.5809 15.1666 75.8284 15.4077 75.9124 15.7886C75.8371 15.8833 75.7531 15.8962 75.6584 15.8166C74.6899 16.4106 74.0572 17.3554 73.2393 18.1087C72.1762 19.0879 71.1582 20.1124 70.1208 21.1196C70.0455 21.0443 69.9723 20.9711 69.897 20.8958H69.8991Z" fill="#F2F2F3"/>
<path d="M86.0967 13.8687C86.5573 13.7138 86.9317 13.2704 87.4956 13.4491C87.2847 13.8149 86.9597 14.0216 86.5486 14.099C86.398 14.0216 86.2473 13.9441 86.0967 13.8687Z" fill="#BEBDBE"/>
<path d="M14.3593 25.6973C14.2129 26.0222 14.0666 26.3472 13.9202 26.6722C13.5544 26.1191 13.9095 25.8867 14.3593 25.6973Z" fill="#C5C5C7"/>
<path d="M1.71961 43.4874C1.69378 43.4379 1.68518 43.3841 1.69594 43.3303C1.78418 43.212 1.89609 43.1259 2.03383 43.0721C2.45136 42.9537 2.8818 42.986 3.30579 42.986C30.5914 42.9838 57.8749 42.9838 85.1606 42.986C85.7223 42.986 86.3077 42.8848 86.8113 43.2615H86.8759C86.5896 43.5477 86.2216 43.4939 85.8686 43.4939C57.819 43.4939 29.7693 43.4896 1.71961 43.4853V43.4874Z" fill="#797A7D"/>
<path d="M75.6606 15.8187L75.9146 15.7907C76.2073 15.6616 76.3106 15.9629 76.5086 16.049C76.1212 16.3568 75.9103 16.0189 75.6606 15.8187Z" fill="#DCDCDE"/>
<path d="M59.8336 12.3645C59.84 12.5259 59.8486 12.6873 59.8551 12.8487C59.84 13.0489 59.825 13.249 59.8078 13.447C59.7518 13.4492 59.7001 13.4621 59.6506 13.4879C59.5646 13.404 59.4806 13.3179 59.3945 13.2339C59.4677 12.9068 59.5968 12.6077 59.8336 12.3623V12.3645Z" fill="#DDDCDD"/>
<path d="M165.886 46.9051C164.721 46.9051 164.502 46.6124 164.719 45.5492C164.773 45.2824 164.874 45.1704 165.119 45.2049C165.853 45.3103 166.688 44.8907 167.306 45.5901C167.5 45.8096 167.558 46.083 167.394 46.3714C167.022 47.0256 166.385 46.8836 165.886 46.9051Z" fill="#FDFDFD"/>
<path d="M126.238 38.3845C126.281 38.3867 126.608 38.3651 126.907 38.4448C127.266 38.5416 127.514 38.8171 127.529 39.2045C127.544 39.5983 127.312 39.8652 126.946 39.9879C126.33 40.1924 125.665 40.173 125.069 40.0482C124.447 39.9169 124.888 39.2841 124.791 38.8881C124.716 38.5717 124.826 38.3436 125.226 38.3802C125.469 38.4017 125.719 38.3845 126.235 38.3845H126.238Z" fill="#FDFDFD"/>
<path d="M189.163 38.3931C189.964 38.3307 190.627 38.5287 190.877 39.2626C191.193 40.1881 191.275 41.1738 190.593 41.9873C190.042 42.6459 189.217 42.4177 188.488 42.4156C188.09 42.4156 188.223 42.0648 188.219 41.8496C188.204 41.0339 188.264 40.2139 188.199 39.4025C188.135 38.5976 188.333 38.1736 189.163 38.3931Z" fill="white"/>
<path d="M145.061 47.1419C145.061 46.9288 145.061 46.7158 145.061 46.5027C145.061 45.177 145.446 44.8692 146.746 45.2351C147.764 45.5213 147.932 46.3434 147.917 47.2538C147.901 48.1578 147.725 48.9756 146.69 49.2252C145.377 49.5416 145.063 49.2898 145.063 47.9942C145.063 47.7101 145.063 47.426 145.063 47.1419H145.061Z" fill="white"/>
<path d="M138.438 40.3624C138.438 40.1493 138.382 39.9169 138.449 39.7275C138.608 39.282 137.989 38.5266 138.914 38.3931C140.257 38.1973 141.036 38.645 141.238 39.6543C141.613 41.5181 140.883 42.4587 139.144 42.4414C138.606 42.4371 138.365 42.3252 138.428 41.7441C138.477 41.2879 138.438 40.823 138.438 40.3603V40.3624Z" fill="white"/>
<path d="M173.078 45.3254C173.403 46.2078 173.633 46.8363 173.883 47.5121H172.292C172.534 46.8406 172.755 46.2251 173.078 45.3254Z" fill="#EFEFEF"/>
<path d="M208.968 38.5115C209.293 39.3939 209.524 40.0223 209.771 40.696H208.181C208.422 40.0266 208.643 39.4111 208.968 38.5115Z" fill="#EFEFEF"/>
<path d="M133.146 38.5137C133.469 39.409 133.691 40.0245 133.934 40.6939H132.346C132.595 40.0159 132.826 39.3918 133.148 38.5137H133.146Z" fill="#EFEFEF"/>
<path d="M157.27 38.5051C157.593 39.3811 157.819 39.988 158.071 40.6702H156.504C156.73 40.031 156.949 39.4091 157.27 38.5051Z" fill="#EFEFF0"/>
<path d="M1.90064 41.4084C1.94583 41.7506 2.05129 42.0304 2.48389 42.0111C2.80241 41.996 3.12524 42.0111 3.44377 42.0111C30.667 42.0111 57.8902 42.0111 85.1134 42.0111H86.2735C86.2778 42.0799 86.2842 42.1488 86.2886 42.2177H85.1629C57.8687 42.2177 30.5744 42.2177 3.2802 42.2263C2.8433 42.2263 2.3483 42.0326 1.96736 42.4394C2.03407 42.5125 2.07066 42.5986 2.06851 42.6976C2.04268 42.7966 1.98457 42.8655 1.89203 42.9085C1.73277 42.8762 1.6144 42.8181 1.72846 42.6266C1.74138 42.2069 1.75644 41.7872 1.76935 41.3676C1.8167 41.3697 1.85975 41.3826 1.89849 41.4084H1.90064Z" fill="#FBFAF9"/>
<path d="M1.73034 42.6287C1.80136 42.7018 1.87023 42.7729 1.94125 42.846C2.32219 42.5727 2.76124 42.648 3.18308 42.648C30.5613 42.6437 57.9416 42.6437 85.3198 42.648C85.7072 42.648 86.1053 42.5878 86.4777 42.7642C86.6068 42.8676 86.624 42.9859 86.5336 43.1237C86.1118 43.2205 85.6835 43.171 85.2574 43.171C57.9115 43.1732 30.5634 43.171 3.21751 43.1796C2.79998 43.1796 2.36524 43.072 1.96062 43.2829C1.87238 43.298 1.7863 43.3152 1.69806 43.3303C1.44625 43.0828 1.56247 42.8546 1.73249 42.6287H1.73034Z" fill="#A0A3A6"/>
<path d="M86.5896 43.0376C86.581 42.9774 86.5681 42.9193 86.5509 42.8612C86.1484 42.6416 85.7137 42.7536 85.294 42.7536C57.9352 42.7471 30.5763 42.7493 3.21753 42.7428C2.79785 42.7428 2.36311 42.8461 1.95634 42.6459C1.95419 42.5771 1.95634 42.5082 1.96495 42.4415C29.5325 42.4393 57.1001 42.435 84.6698 42.4329C85.3822 42.4329 86.0924 42.4264 86.8048 42.4221C86.9533 42.6524 87.0846 42.8827 86.8091 43.1151C86.7037 43.1818 86.6305 43.156 86.5875 43.0398L86.5896 43.0376Z" fill="#CECFD1"/>
<path d="M86.5894 43.0377C86.6626 43.0635 86.7358 43.0893 86.8111 43.113C86.8218 43.1625 86.8218 43.212 86.8111 43.2615C86.456 43.268 86.1009 43.283 85.7458 43.283C57.8166 43.283 29.8896 43.283 1.96045 43.283C2.35 42.8978 2.8407 43.0807 3.2819 43.0786C30.5891 43.07 57.8962 43.07 85.2055 43.0678C85.6683 43.0678 86.131 43.0463 86.5916 43.0355L86.5894 43.0377Z" fill="#8A8D90"/>
<path d="M12.6638 21.9718C8.54447 21.9826 4.42515 21.9933 0.303677 22.0041C0.292916 21.9331 0.280003 21.8599 0.26709 21.7889C0.587768 21.5629 0.953643 21.6726 1.298 21.6726C4.87065 21.664 8.44331 21.6683 12.016 21.6662C12.2183 21.6662 12.4292 21.6167 12.61 21.7566C12.6272 21.8276 12.6444 21.9008 12.6616 21.9718H12.6638Z" fill="#8E9094"/>
<path d="M12.612 21.7566C12.485 21.7566 12.358 21.7544 12.231 21.7523C12.1492 21.72 12.117 21.6834 12.1363 21.6382C12.1578 21.5887 12.1794 21.565 12.2052 21.565C12.2052 21.494 12.2073 21.4208 12.2095 21.3498C12.2891 21.2637 12.3709 21.1776 12.4505 21.0916C12.5043 21.3132 12.5582 21.5349 12.612 21.7587V21.7566Z" fill="#C9C9CB"/>
<path d="M12.2052 21.5651C12.2138 21.6275 12.2224 21.6899 12.231 21.7523C8.24296 21.7652 4.25492 21.776 0.269043 21.7889C0.525155 21.4187 0.914704 21.5629 1.24614 21.5629C4.89843 21.5565 8.55288 21.5629 12.2052 21.5629V21.5651Z" fill="#A3A5A9"/>
<path d="M12.4765 22.2021C12.4657 22.2602 12.4657 22.3183 12.4765 22.3743C8.49061 22.3915 4.50473 22.4087 0.520996 22.4281C0.764195 22.0256 1.16235 22.2021 1.48734 22.2021C5.15039 22.1913 8.81344 22.1999 12.4743 22.2021H12.4765Z" fill="#666668"/>
<path d="M1.96055 42.6459C29.7541 42.6459 57.5477 42.6459 85.3412 42.6524C85.7458 42.6524 86.2021 42.4845 86.5508 42.8612C59.0219 42.8612 31.4952 42.8612 3.9664 42.859C3.29061 42.859 2.61482 42.8526 1.93903 42.8483C1.93472 42.7794 1.93903 42.7127 1.9584 42.6481L1.96055 42.6459Z" fill="#B8B9BD"/>
</g>
<defs>
<clipPath id="clip0_3_135">
<rect width="225.981" height="50" fill="white"/>
</clipPath>
</defs>
</svg>
